<?xml version="1.0" encoding="UTF-8"?>
<svg version="1.1" viewBox="0 0 1600 1600" width="1280" height="1280" xmlns="http://www.w3.org/2000/svg">
<path transform="translate(808 1.76)" d="m0 0c3.31-0.00437 6.62-0.0183 9.93-0.041 23.2-0.156 46 0.906 69.1 3.28 3.97 0.377 3.97 0.377 7.94 0.75 3 0.364 5.93 1.02 8.89 1.65 5.29 1 10.6 1.72 16 2.46 4.89 0.701 9.47 1.74 14.2 3.14 3.42 0.707 6.86 1.28 10.3 1.86 3.6 0.637 6.46 1.52 9.7 3.14 2.54 0.536 5.06 1.01 7.62 1.44 5.47 0.966 10.7 2.12 16 3.82 2.47 0.786 4.95 1.46 7.46 2.12 11.1 3 22 6.58 32.8 10.5 1.99 0.717 3.99 1.41 5.99 2.08 8.45 2.83 17 5.75 24.8 9.97 4.06 1.91 8.31 3.37 12.5 4.87 3.86 1.4 7.27 2.98 10.7 5.19 4.58 2.49 9.19 4.55 14.1 6.19 1.86 0.809 1.86 0.809 3.64 2.2 2.95 2.13 6.18 3.36 9.54 4.73 7.19 3.03 13.7 6.7 20.4 10.8 2.66 1.65 5.33 3.2 8.08 4.69 4.15 2.27 8.11 4.79 12.1 7.35 3.77 2.41 7.56 4.78 11.4 7.15 0.979 0.611 0.979 0.611 1.98 1.24 0.96 0.599 0.96 0.599 1.94 1.21 0.631 0.396 1.26 0.792 1.91 1.2 1.41 0.873 2.83 1.73 4.25 2.58 0.733 0.44 1.47 0.88 2.22 1.33 0.672 0.397 1.34 0.794 2.04 1.2 0.73 0.553 0.73 0.553 1.48 1.12v2c0.669 0.215 1.34 0.431 2.03 0.652 3.95 1.79 7.11 4.27 10.5 6.91 1.43 1.09 2.86 2.18 4.29 3.27 0.703 0.538 1.41 1.08 2.13 1.63 2.78 2.12 5.58 4.2 8.39 6.29 5.3 3.98 10.5 8.07 15.6 12.2 0.849 0.686 1.7 1.37 2.57 2.08 7.02 5.69 13.9 11.6 20.7 17.5 1.19 1.02 2.39 2.04 3.59 3.05 0.617 0.521 1.23 1.04 1.87 1.58 0.558 0.467 1.12 0.935 1.69 1.42 1.58 1.44 2.9 2.94 4.24 4.61 2 2.43 3.82 3.97 6.31 5.81v2c0.58 0.255 1.16 0.51 1.76 0.773 2.47 1.35 4.14 2.86 6.13 4.85l2.15 2.14c0.73 0.737 1.46 1.47 2.21 2.23 0.745 0.737 1.49 1.47 2.26 2.23 1.06 1.06 1.06 1.06 2.13 2.14 0.645 0.647 1.29 1.29 1.95 1.96 1.41 1.66 1.41 1.66 1.41 3.66 0.99 0.33 1.98 0.66 3 1 1.51 1.5 1.51 1.5 3.12 3.44 2.76 3.26 5.57 6.46 8.44 9.62 1.48 1.64 2.96 3.29 4.44 4.94 0.629 0.7 1.26 1.4 1.91 2.12 4.09 4.64 4.09 4.64 4.09 6.88h2c1.41 1.55 1.41 1.55 3.06 3.75 0.624 0.825 1.25 1.65 1.89 2.5 0.675 0.908 1.35 1.82 2.05 2.75 0.696 0.928 1.39 1.86 2.11 2.81 1.5 2.01 3.01 4.01 4.51 6.02 2 2.66 4.03 5.3 6.07 7.93 8.32 10.7 16.1 21.7 23.3 33.2 1.19 1.86 2.37 3.71 3.56 5.56 2.22 3.49 4.39 7 6.5 10.6 2.31 3.89 4.76 7.66 7.35 11.4 4.21 6.61 7.76 13.6 11.4 20.6 0.429 0.816 0.859 1.63 1.3 2.47 3.15 6 6.21 12 9.2 18.1 1.52 3.08 3.1 6.09 4.82 9.05 1.37 2.42 2.45 4.49 3.3 7.1 1.11 3.11 2.43 6 3.94 8.94 2.87 5.62 5.26 11.4 7.62 17.2 0.339 0.834 0.678 1.67 1.03 2.53 7.69 19.1 15 38.3 20.1 58.2 0.812 3.18 0.812 3.18 1.95 5.88 0.955 2.39 1.45 4.58 1.88 7.12 0.625 3.34 1.41 6.43 2.56 9.62 1.61 4.53 2.31 9.08 2.97 13.8 0.422 2.78 0.422 2.78 1.52 5.15 1.57 4.14 1.78 8.47 2.21 12.8 0.408 3.74 1.11 6.47 2.79 9.79 0.367 3.34 0.504 6.65 0.656 10 0.133 3.17 0.133 3.17 2.34 6 0.502 2.57 0.502 2.57 0.852 5.63l0.391 3.39c0.126 1.17 0.253 2.34 0.383 3.54 0.201 1.71 0.201 1.71 0.406 3.46 0.683 6.09 1.1 12 0.919 18.2-0.158 1.83-0.158 1.83 1.05 2.81 1.1 7.65 1.32 15.3 1.55 23 0.0208 0.67 0.0416 1.34 0.0631 2.03 0.441 14.4 0.574 28.7 0.571 43.1-8.17e-5 2.71 0.00696 5.42 0.0205 8.12 0.185 37.7 0.185 37.7-2.21 54.7-0.33 0.33-0.66 0.66-1 1-0.0215 1.65 0.0106 3.29 0.0625 4.94 0.0468 5.56-0.341 11-0.938 16.5-0.118 1.15-0.118 1.15-0.238 2.33-0.0839 0.735-0.168 1.47-0.254 2.23-0.0733 0.652-0.147 1.3-0.222 1.97-0.411 2.03-0.411 2.03-1.42 4.47-1.02 2.64-1.3 4.69-1.46 7.51-0.515 6.72-1.71 13.3-2.96 19.9-0.217 1.19-0.434 2.38-0.658 3.6-1 5.36-2.15 10.4-3.9 15.6-0.538 2.67-1.04 5.32-1.5 8-0.824 4.82-1.86 9.39-3.5 14-0.529 1.71-1.05 3.41-1.56 5.12l-0.754 2.51c-0.611 2.11-1.16 4.23-1.68 6.37-0.472 1.84-0.952 3.67-1.44 5.5-0.246 0.938-0.492 1.88-0.746 2.84-0.816 2.66-0.816 2.66-1.78 4.56-1.04 2.11-1.72 4.12-2.36 6.37l-0.723 2.48c-0.25 0.865-0.5 1.73-0.757 2.62-3.18 10.8-6.81 21.4-11.1 31.8-0.908 2.34-1.76 4.69-2.58 7.06-0.393 1.13-0.393 1.13-0.793 2.29-0.517 1.5-1.03 3.01-1.54 4.52-1.37 3.98-2.9 7.41-5.19 11-2.18 4.82-4.1 9.74-6.04 14.7-1.15 2.79-2.5 5.44-3.89 8.12-2.31 4.49-4.23 9.05-6.06 13.8-1.22 2.98-2.65 5.83-4.12 8.7-1.1 2.2-2.02 4.46-2.88 6.76h-2c-0.103 0.866-0.206 1.73-0.312 2.62-1.29 6.33-5.04 12-8.06 17.6-3.65 6.86-7.18 13.8-10.6 20.7-2.84 5.76-5.92 11.4-9.02 17h-2c-0.186 1.11-0.186 1.11-0.375 2.25-0.58 2.55-1.36 4.48-2.62 6.75h-2c-0.124 0.742-0.248 1.48-0.375 2.25-0.58 2.55-1.36 4.48-2.62 6.75h-2c-0.0657 0.664-0.131 1.33-0.199 2.01-1.11 4.13-3.28 7.25-5.61 10.8-3.07 4.71-5.84 9.39-8.29 14.4-1.09 2.11-2.39 3.91-3.9 5.74-2.41 3.09-4.14 6.11-5.8 9.65-3.25 6.36-7.25 12.4-11.2 18.4h-2c-0.124 0.578-0.247 1.16-0.375 1.75-0.631 2.27-1.51 4.18-2.62 6.25h-2c-0.371 1.33-0.371 1.33-0.75 2.69-1.3 3.45-2.89 5.52-5.25 8.31-0.709 1.31-1.39 2.64-2 4h-2c-0.371 1.33-0.371 1.33-0.75 2.69-1.3 3.45-2.89 5.52-5.25 8.31-0.709 1.31-1.39 2.64-2 4h-2l-0.754 2.16c-1.38 3.16-3.11 5.59-5.18 8.34-2.04 2.71-3.97 5.35-5.69 8.28-1.37 2.22-1.37 2.22-3.37 3.22-1.02 1.65-2.02 3.32-3 5-2.02 2.82-4.09 5.6-6.16 8.38-1.85 2.49-1.85 2.49-2.96 4.9-0.879 1.72-0.879 1.72-2.88 2.72-1.01 1.66-2.01 3.33-3 5-2 2.58-4.08 5.08-6.16 7.6-1.87 2.28-1.87 2.28-2.96 4.65-0.879 1.75-0.879 1.75-2.88 2.75-0.495 0.846-0.99 1.69-1.5 2.56-0.495 0.804-0.99 1.61-1.5 2.44h-2l-0.223 1.64c-1.09 3.3-3.01 5.44-5.21 8.11-0.803 0.985-1.61 1.97-2.43 2.98-0.703 0.748-1.41 1.5-2.13 2.27h-2c-0.104 0.814-0.104 0.814-0.211 1.64-1.12 3.33-3.12 5.39-5.41 8.04-0.91 1.06-1.82 2.12-2.73 3.18-0.449 0.524-0.898 1.05-1.36 1.59-2.43 2.9-4.67 5.95-6.91 8.99-0.454 0.51-0.908 1.02-1.38 1.55h-2c-0.107 0.588-0.214 1.18-0.324 1.78-0.764 2.51-1.75 3.78-3.49 5.72-0.538 0.605-1.08 1.21-1.63 1.83-1.23 1.32-2.51 2.6-3.81 3.86-1.82 1.69-1.82 1.69-2.69 3.75-2.04 3.97-4.85 6.66-9.06 8.06l-0.391 1.72c-0.903 3.37-2.99 5.19-5.36 7.71-0.861 0.927-1.72 1.85-2.61 2.81-1.74 1.82-3.53 3.6-5.34 5.35-2.07 2.17-3.03 3.77-4.3 6.4-1.62 1.53-1.62 1.53-3.44 2.94-2.96 2.41-4.69 4.71-6.56 8.06h-2c-0.268 0.639-0.536 1.28-0.812 1.94-1.19 2.06-1.19 2.06-4.19 3.06-1.22 2.5-1.22 2.5-2 5h-2c-0.268 0.639-0.536 1.28-0.812 1.94-1.19 2.06-1.19 2.06-4.19 3.06-0.124 0.578-0.247 1.16-0.375 1.75-0.939 3.38-3.04 4.96-5.62 7.25-0.742 0.351-1.49 0.701-2.25 1.06-0.577 0.309-1.16 0.619-1.75 0.938-0.144 0.598-0.289 1.2-0.438 1.81-0.863 3.36-3.01 4.94-5.56 7.19-0.99 0.33-1.98 0.66-3 1-0.289 0.578-0.577 1.16-0.875 1.75-1.52 3.05-3.61 4.98-6.12 7.25-0.99 0.33-1.98 0.66-3 1-0.33 0.66-0.66 1.32-1 2-0.33 0.66-0.66 1.32-1 2-0.99 0.33-1.98 0.66-3 1-0.686 1.32-1.35 2.66-2 4-3.11 3.95-6.44 7.44-10 11-0.784 0.969-1.57 1.94-2.38 2.94-1.83 2.25-3.76 4.09-6 5.94-3.37 2.79-6.15 5.9-8.99 9.23-5.65 6.57-5.65 6.57-9.63 7.9-0.309 0.825-0.619 1.65-0.938 2.5-0.351 0.825-0.701 1.65-1.06 2.5-1.32 0.372-2.66 0.706-4 1-0.704 1.31-1.36 2.65-2 4-4.33 4.78-4.33 4.78-8 6-0.33 0.66-0.66 1.32-1 2-0.33 0.66-0.66 1.32-1 2-0.99 0.33-1.98 0.66-3 1-0.33 0.66-0.66 1.32-1 2-0.33 0.66-0.66 1.32-1 2-0.99 0.33-1.98 0.66-3 1-0.268 0.557-0.536 1.11-0.812 1.69-1.72 3.35-4.27 5.94-7.19 8.31h-2c-0.33 0.99-0.66 1.98-1 3-1.21 0.464-1.21 0.464-2.44 0.938-3.06 1.27-3.25 2.16-4.56 5.06-0.99 0.33-1.98 0.66-3 1-0.33 0.66-0.66 1.32-1 2-0.33 0.66-0.66 1.32-1 2-0.99 0.33-1.98 0.66-3 1-0.33 0.66-0.66 1.32-1 2-0.33 0.66-0.66 1.32-1 2-0.99 0.33-1.98 0.66-3 1-0.33 0.66-0.66 1.32-1 2-0.33 0.66-0.66 1.32-1 2-0.99 0.33-1.98 0.66-3 1-0.33 0.66-0.66 1.32-1 2-0.33 0.66-0.66 1.32-1 2-0.99 0.33-1.98 0.66-3 1-0.33 0.66-0.66 1.32-1 2-0.33 0.66-0.66 1.32-1 2-0.99 0.33-1.98 0.66-3 1-0.289 0.578-0.578 1.16-0.875 1.75-1.52 3.05-3.61 4.98-6.12 7.25-0.99 0.33-1.98 0.66-3 1-1.21 2-1.21 2-2 4h-3c-0.268 0.804-0.536 1.61-0.812 2.44-0.392 0.846-0.784 1.69-1.19 2.56-0.99 0.33-1.98 0.66-3 1-1.64 1.66-1.64 1.66-3.25 3.69-3.24 3.82-6.62 7.44-10.8 10.3h-2c-0.227 0.557-0.454 1.11-0.688 1.69-2.71 4.78-7.2 8.13-11.3 11.6-6.33 5.37-12.3 10.9-18.2 16.9-8.83 8.99-8.83 8.99-12.8 11.8h-2c-0.229 0.565-0.459 1.13-0.695 1.71-1.65 2.9-3.69 4.7-6.18 6.91-0.864 0.776-1.73 1.55-2.62 2.35-2.51 2.02-2.51 2.02-4.7 3.05-2.34 1.27-2.68 2.6-3.8 4.98-1.77 1.78-1.77 1.78-3.81 3.5-0.713 0.605-1.43 1.21-2.16 1.83-1.58 1.3-3.18 2.58-4.78 3.86-2.28 1.77-2.28 1.77-4.25 3.81-3.07 3.07-6.39 5.59-10 8h-3c-0.227 0.639-0.454 1.28-0.688 1.94-1.31 2.06-1.31 2.06-3.94 2.81-0.784 0.0825-1.57 0.165-2.38 0.25v2c-5.23 2.71-10.4 5.26-16 7.18-2.11 0.797-2.11 0.797-4.23 2.12-7.4 4.35-14.3 4.97-22.8 3.71-4.28-1.58-8.08-3.68-12-6-1.22-0.569-2.44-1.12-3.69-1.62-4.14-1.72-8.22-3.55-12.3-5.38v-2c-0.804-0.206-1.61-0.412-2.44-0.625-4.62-1.78-8.72-4.24-12.6-7.38v-2c-0.568-0.262-1.14-0.523-1.72-0.793-2.46-1.3-4.52-2.81-6.71-4.52l-2.25-1.74c-2.59-2.18-4.93-4.54-7.32-6.95-1.74-1.61-3.49-3.22-5.25-4.81-6.03-5.49-12-11.1-17.9-16.7-3.52-3.33-7.08-6.46-10.9-9.48-1.69-1.64-3.36-3.31-5-5-1.6-1.63-3.21-3.25-4.81-4.88-1.19-1.2-1.19-1.2-2.39-2.43-2.83-2.73-5.76-5.31-8.72-7.88-3.27-2.87-6.46-5.83-9.63-8.81-0.683-0.639-1.37-1.28-2.07-1.94-5.5-5.18-10.9-10.5-16.1-15.9-2.91-2.95-5.85-5.77-9-8.46-5.22-4.51-10-9.44-14.9-14.4-6.75-6.98-6.75-6.98-14-13.4-0.776-0.652-1.55-1.3-2.35-1.98v-2c-0.794-0.306-0.794-0.306-1.6-0.618-3.42-1.97-5.99-4.71-8.74-7.5-0.94-0.939-0.94-0.939-1.9-1.9-2.07-2.07-4.13-4.15-6.19-6.23-1.44-1.44-2.88-2.89-4.32-4.33-3.79-3.8-7.58-7.6-11.4-11.4-3.84-3.86-7.69-7.72-11.5-11.6-6.22-6.24-12.4-12.5-18.6-18.7-5.71-5.77-5.71-5.77-11.5-11.5-1.44-1.39-2.82-2.83-4.2-4.27v-2h-2c-1.37-1.4-1.37-1.4-3-3.38-2.9-3.42-5.93-6.6-9.12-9.75-3.53-3.49-6.75-7.03-9.88-10.9-2.49-2.53-5.01-5.01-7.54-7.5l-2.53-2.5c-1.25-1.24-1.25-1.24-2.54-2.5-6.4-6.66-6.4-6.66-6.4-9.5l-1.8-0.781c-2.38-1.32-3.71-2.64-5.45-4.72-0.781-0.913-0.781-0.913-1.58-1.84-1.17-1.66-1.17-1.66-1.17-3.66-0.99-0.33-1.98-0.66-3-1-1.82-1.78-1.82-1.78-3.69-3.94l-1.89-2.15c-1.43-1.91-1.43-1.91-1.43-3.91-0.99-0.33-1.98-0.66-3-1-1.51-1.46-1.51-1.46-3.12-3.38-0.607-0.714-1.21-1.43-1.84-2.16-3-3.63-5.97-7.28-8.92-10.9-2.03-2.49-2.03-2.49-4.12-4.52-2.25-2.25-4.19-4.64-6.18-7.12-2.99-3.69-6.03-7.26-9.25-10.8-3.82-4.19-7.28-8.58-10.7-13.1-3-3.95-6.14-7.76-9.37-11.5-4.96-5.78-9.6-11.8-14.2-17.8-2.28-2.98-4.6-5.93-6.92-8.87-0.46-0.585-0.919-1.17-1.39-1.77-3.4-4.32-6.85-8.6-10.3-12.9-4.66-6.14-4.66-6.14-4.66-9.18h-2c-1.36-1.68-2.64-3.42-3.88-5.19-2.06-2.92-4.08-5.76-6.38-8.49-1.74-2.32-1.74-2.32-1.74-5.32h-2c-1.48-1.87-1.48-1.87-3.19-4.44-2.33-3.44-4.71-6.76-7.31-10-3.13-3.97-5.81-8.12-8.48-12.4-2.44-3.82-5-7.55-7.58-11.3-0.479-0.693-0.958-1.39-1.45-2.1-0.922-1.33-1.84-2.67-2.77-4-4.24-6.16-8.3-12.4-12.3-18.8-2.13-3.35-4.27-6.68-6.42-10-1.14-1.77-2.27-3.53-3.41-5.3-1.05-1.63-2.1-3.26-3.15-4.9-0.62-0.967-1.24-1.93-1.88-2.93-0.545-0.848-1.09-1.7-1.65-2.57-3.41-5.57-3.41-5.57-3.41-9.3h-2c-0.485-0.86-0.969-1.72-1.47-2.61-4.14-7.31-8.41-14.5-12.9-21.7-3.66-6.04-3.66-6.04-3.66-9.74h-2c-5.39-7.15-9.02-15.9-13-23.9-1.71-3.46-3.44-6.91-5.17-10.4-0.668-1.34-1.34-2.67-2-4.01l-0.961-1.92c-1.32-2.65-2.65-5.3-3.97-7.94-0.471-0.938-0.941-1.88-1.43-2.84-1.13-2.27-2.25-4.54-3.37-6.81-0.315-0.639-0.63-1.28-0.955-1.94-0.894-1.81-1.78-3.63-2.67-5.45-1.36-2.87-1.36-2.87-3.52-4.84-0.683-1.84-1.36-3.69-2.02-5.54-1.12-2.83-2.46-5.5-3.85-8.21-2.09-4.09-3.97-8.18-5.69-12.4-1.46-3.61-3.02-6.96-5-10.3-2.5-4.31-3.99-8.75-5.45-13.5-1.14-3.42-2.54-6.69-3.99-9.99-1.36-3.18-2.71-6.37-4.06-9.56-0.351-0.824-0.703-1.65-1.06-2.5-1.81-4.27-3.46-8.52-4.87-12.9-0.766-2.15-1.54-4.29-2.31-6.44-2.27-6.33-4.4-12.7-6.48-19.1-1.25-3.57-2.71-7-4.21-10.5-3.39-9.37-5.51-19.1-7.79-28.8-1.28-5.42-2.62-10.8-4.28-16.1-2.46-8.2-3.79-16.6-5.28-25.1-0.202-1.14-0.403-2.28-0.611-3.45-0.179-1.03-0.358-2.06-0.542-3.13-0.395-2.47-0.395-2.47-1.51-4.48-0.477-3.01-0.908-6.01-1.3-9.04-0.124-0.928-0.248-1.86-0.375-2.81-4.79-36.3-7.59-72-7.57-109 1.33e-4 -0.681 2.67e-4 -1.36 4.04e-4 -2.06 0.00248-4.54 0.0201-9.08 0.0465-13.6 0.0044-1.17 0.0088-2.34 0.0133-3.55 0.0142-1.61 0.0142-1.61 0.0287-3.24 0.0102-1.41 0.0102-1.41 0.0207-2.84 0.14-2.24 0.14-2.24 1.14-4.24 0.214-2.53 0.377-5.03 0.5-7.56 0.0406-0.747 0.0812-1.49 0.123-2.26 0.13-2.39 0.254-4.78 0.377-7.17 0.162-3.15 0.329-6.29 0.5-9.44 0.0354-0.727 0.0709-1.45 0.107-2.2 0.28-5.13 0.28-5.13 1.39-7.36 0.268-1.91 0.488-3.83 0.684-5.75l0.373-3.54c0.251-2.45 0.501-4.89 0.75-7.34 0.634-6 1.38-11.9 2.65-17.8 0.647-3.07 1.21-6.14 1.77-9.23 0.21-1.15 0.42-2.31 0.637-3.5 0.432-2.38 0.861-4.76 1.29-7.14 1.04-5.68 2.2-11.2 3.86-16.7 0.892-3.82 1.69-7.66 2.5-11.5 0.869-4.03 1.9-7.69 3.5-11.5 0.489-1.8 0.946-3.62 1.38-5.44 3.54-14.5 7.7-28.9 13.6-42.6 0.524-1.43 1.03-2.87 1.5-4.31 0.249-0.759 0.498-1.52 0.754-2.3 0.767-2.45 1.48-4.92 2.18-7.39 1.45-4.88 3.41-9.39 5.56-14 0.649-1.46 1.29-2.92 1.94-4.38 1.85-4.17 3.74-8.31 5.64-12.5 1.08-2.4 2.12-4.8 3.16-7.22 0.303-0.705 0.605-1.41 0.917-2.14 0.592-1.38 1.18-2.77 1.76-4.16 1.81-4.23 4.01-7.83 6.59-11.7 1.41-2.63 2.71-5.31 4-8 0.642-1.31 1.29-2.62 1.93-3.93 0.317-0.645 0.635-1.29 0.962-1.95 3.03-6.12 6.15-12.1 9.75-17.9 1.31-2.14 2.53-4.32 3.73-6.52 6.76-12.3 14.5-24.1 22.3-35.8 1.04-1.57 2.01-3.19 2.96-4.81 1.31-2.12 1.31-2.12 2.64-3.35 2.33-2.48 3.95-5.35 5.67-8.27 2.06-3.5 4.01-6.71 7-9.5 0.66-0.99 1.32-1.98 2-3h2l0.824-2.22c2.77-6.56 7.05-11.9 12.2-16.8 1.58-1.67 3.14-3.36 4.69-5.06l2.32-2.54c1.75-2.12 2.82-3.95 3.99-6.4 1.64-1.69 3.31-3.35 5-5 0.763-0.949 1.53-1.9 2.31-2.88 1.99-2.45 4.15-4.46 6.56-6.5 3.55-3.02 6.58-6.27 9.58-9.83 1.45-1.69 2.97-3.23 4.54-4.8 1.13-1.31 2.26-2.62 3.38-3.94 2.68-3.07 5.36-5.6 8.62-8.06 3.96-3.27 7.73-6.53 11-10.5 3.29-3.97 7.05-7.2 11-10.5l2.97-2.49c3-2.51 6.02-5.01 9.03-7.51 2.92-2.43 5.84-4.87 8.75-7.31 10.5-8.72 21.2-17.5 32.6-24.9 2.93-1.95 5.79-3.99 8.65-6.04 6.87-4.91 13.8-9.55 21-13.9 2.88-1.77 5.63-3.66 8.38-5.62 3.41-2.43 6.76-4.41 10.6-6.19 3.94-2.11 7.83-4.29 11.6-6.6 6.59-3.96 13.3-7.35 20.3-10.6 3.65-1.68 7.22-3.4 10.7-5.41 9.5-5.48 20-10.2 30.3-13.9 2.79-1.03 5.42-2.2 8.06-3.56 3.9-2 7.88-3.53 12-5 1.2-0.454 2.39-0.908 3.62-1.38 18.3-6.85 36.8-13.6 55.9-17.8 3.9-0.879 7.77-1.82 11.6-2.78l2.08-0.517c3.62-0.911 7.18-1.91 10.7-3.05 5.56-1.73 11.3-2.68 17-3.69 2.8-0.499 5.57-1.09 8.34-1.74 5.17-1.17 10.4-1.84 15.6-2.5 5.35-0.679 10.6-1.38 15.9-2.53 6.15-1.27 12.3-1.64 18.6-2.04 1.11-0.078 2.22-0.156 3.37-0.236 24-1.59 48.1-1.91 72.2-1.94zm-81.8 188c-3.66 1.19-7.34 1.92-11.1 2.6-0.677 0.126-1.35 0.251-2.05 0.381-3.19 0.585-6.37 1.1-9.59 1.53-3.5 0.536-6.76 1.37-10.2 2.34-5.96 1.66-11.9 2.98-18 4.19-7.05 1.43-13.6 3.3-20.2 6-2.77 1.05-5.54 2.09-8.31 3.12-0.671 0.254-1.34 0.508-2.03 0.769-3.86 1.46-7.74 2.81-11.7 4.11-6.64 2.42-12.9 5.41-19.2 8.62-3.54 1.73-7.12 3.04-10.8 4.38-1.07 0.536-2.14 1.07-3.25 1.62-2.31 1.15-4.23 1.89-6.75 2.38v2c-0.603 0.182-1.21 0.364-1.83 0.551-4.29 1.35-7.67 2.55-11.2 5.45-2 1.01-4 2-6 3-5.11 2.87-10.2 5.79-15.1 9.06-3.65 2.41-7.47 4.37-11.4 6.38-2.63 1.59-4.44 3.39-6.59 5.56-0.99 0.33-1.98 0.66-3 1-0.433 0.433-0.866 0.866-1.31 1.31-3.02 3.02-6.7 5.11-10.4 7.25-2.25 1.27-2.25 1.27-3.59 2.75-2.36 2.31-4.95 4.21-7.6 6.19l-3.12 2.34c-3.01 2.16-3.01 2.16-5.74 3.79-2.89 1.74-4.92 3.96-7.27 6.37-1.05 0.886-2.12 1.76-3.19 2.62-2.93 2.25-2.93 2.25-4.81 5.38-0.99 0.33-1.98 0.66-3 1-0.33 0.99-0.66 1.98-1 3-1.33 0.667-2.67 1.33-4 2-1.71 1.62-3.37 3.29-5 5l-2.44 2.38c-1.91 1.96-3.64 3.9-5.38 6-2.22 2.64-4.56 4.89-7.19 7.12-3.77 3.21-6.88 6.68-10 10.5-1.06 1.25-2.12 2.5-3.19 3.75-0.468 0.552-0.936 1.1-1.42 1.67-2.02 2.28-4.17 4.37-6.39 6.45-2.09 2.22-3.45 4.52-5 7.12-0.66 0.33-1.32 0.66-2 1-1.01 1.66-2.01 3.33-3 5-0.701 0.866-1.4 1.73-2.12 2.62-2.04 2.31-2.04 2.31-2.88 5.38-0.99 0.66-1.98 1.32-3 2-1.45 2.21-2.72 4.48-3.97 6.81-1.78 3.25-2.89 5.09-6.03 7.19-2.42 3.57-4.21 7.43-6.04 11.3-0.965 1.67-0.965 1.67-2.96 2.67-2.66 4.34-4.92 8.79-7.07 13.4-0.93 1.6-0.93 1.6-2.93 2.6-0.957 1.77-0.957 1.77-1.81 3.94-2.86 6.7-6.09 13.2-9.69 19.5-2.84 5.04-5.16 10.3-7.5 15.6-0.832 1.81-1.67 3.63-2.5 5.44-2.2 4.84-4.27 9.73-6.29 14.6-0.875 2.11-1.78 4.21-2.7 6.3-1.56 3.73-2.85 7.47-4.07 11.3-2.19 6.83-2.19 6.83-3.45 9.26-1.02 2.13-1.5 4.01-1.95 6.33-0.742 3.54-1.73 6.88-2.94 10.3-3.85 11-6.1 22.3-8.41 33.7-0.265 1.31-0.265 1.31-0.535 2.64-0.509 2.52-1.01 5.04-1.52 7.57-0.151 0.757-0.302 1.51-0.457 2.29-1.15 5.88-2.08 11.8-2.64 17.7l-0.236 2.34c-0.159 1.59-0.312 3.18-0.461 4.77-0.41 3.97-0.944 6.86-2.84 10.4-0.204 2.42-0.204 2.42-0.0625 4.94 0.0926 2.6 0.105 4.86-0.421 7.41-0.5 2.56-0.709 4.95-0.814 7.56-0.04 0.948-0.0799 1.9-0.121 2.87-0.0386 1.01-0.0772 2.03-0.117 3.07-0.043 1.06-0.086 2.11-0.13 3.2-0.0901 2.23-0.178 4.47-0.265 6.71-0.131 3.39-0.269 6.79-0.408 10.2-0.087 2.18-0.174 4.36-0.26 6.53-0.0406 1-0.0812 2.01-0.123 3.04-0.595 12.9-0.595 12.9 1.72 25.5 0.343 3.1 0.458 6.2 0.562 9.31-0.0406 5.51-0.0406 5.51 1.44 10.7 0.353 2.37 0.662 4.72 0.938 7.1 0.085 0.708 0.17 1.42 0.258 2.15 0.272 2.27 0.538 4.55 0.805 6.82 0.179 1.5 0.359 3.01 0.539 4.51 0.175 1.47 0.349 2.93 0.523 4.4 0.085 0.711 0.17 1.42 0.258 2.16 0.444 3.74 0.833 7.49 1.18 11.2 0.243 3.72 0.243 3.72 2.5 6.63 0.409 2.66 0.742 5.27 1 7.94 0.427 4.4 0.863 8.13 3 12.1 0.309 2.18 0.309 2.18 0.438 4.44 0.37 4.01 1.43 6.12 3.56 9.56 0.801 2.55 1.45 5.11 2.12 7.7 3.84 14.4 8.79 28.3 14.5 42.1 0.869 2.09 1.73 4.18 2.58 6.27 2.48 6.1 5.2 12 8.19 17.9 1.07 2.11 2.13 4.22 3.17 6.34 8.16 16.6 17 33.3 28 48.3 2.02 2.78 3.69 5.66 5.36 8.66 2.12 3.52 4.69 6.71 7.22 9.94 0.573 0.741 1.15 1.48 1.74 2.24 1.16 1.5 2.32 3 3.49 4.5 1.92 2.48 3.82 4.96 5.73 7.45 8.87 11.9 8.87 11.9 18.9 22.7 3.56 3.47 7.02 6.97 10.2 10.8 6.28 7.27 13.2 14 20.5 20.3 1.85 1.62 3.64 3.27 5.42 4.96 6.8 6.44 13.7 12.4 21.2 18 2.64 2.02 2.64 2.02 4.38 3.8 1.21 1.46 1.21 1.46 3.26 1.23v2c2.21 1.62 2.21 1.62 5 3.25 4.15 2.56 8.07 5.23 11.9 8.2 2.04 1.52 4.11 2.94 6.23 4.34 1.19 0.785 1.19 0.785 2.39 1.59 0.81 0.535 1.62 1.07 2.45 1.62 1.14 0.763 1.14 0.763 2.31 1.54 18.1 12 36.7 22.2 56.2 31.5 1.32 0.631 1.32 0.631 2.67 1.28 9.78 4.65 19.6 8.9 29.8 12.7 0.803 0.299 1.61 0.598 2.43 0.906 6.58 2.42 13.2 4.67 19.9 6.87 2.29 0.761 4.58 1.53 6.87 2.33 7.19 2.49 14.4 4.28 21.8 5.9 2.27 0.517 4.54 1.04 6.81 1.56 1.07 0.246 2.15 0.492 3.25 0.746 2.41 0.567 4.79 1.18 7.18 1.82 3.55 0.829 6.94 1.25 10.6 1.6 2.64 0.334 5.13 1.05 7.69 1.74 4.15 0.889 8.38 1.31 12.6 1.75 3.14 0.35 6.03 0.825 9.05 1.75 4.47 1.2 8.76 1.74 13.4 2.14 0.945 0.0841 1.89 0.168 2.86 0.255 12.1 0.967 24.3 0.938 36.4 0.897 3.35-0.0114 6.71-0.00464 10.1 0.00689 25.2 0.154 25.2 0.154 50.2-2.27 0.33-0.33 0.66-0.66 1-1 3.42-0.48 6.84-0.873 10.3-1.25 3.67-0.115 3.67-0.115 6.73-1.75 1.77-0.197 3.54-0.387 5.32-0.544 17.2-1.53 34.1-5.72 50.7-10.5 0.672-0.191 1.34-0.381 2.04-0.578 13.6-3.87 27-8.15 40.1-13.3 2.27-0.888 4.55-1.73 6.85-2.55 4.7-1.75 9.22-3.93 13.8-6.06 2.21-1.02 4.44-2.01 6.68-2.96 3.73-1.61 7.37-3.35 11-5.16 0.684-0.342 1.37-0.684 2.07-1.04 5.73-2.9 11.3-5.99 16.9-9.19 3.2-1.83 6.41-3.58 9.72-5.2 3.19-1.58 6.19-3.31 9.18-5.25 0.933-0.605 1.87-1.21 2.83-1.83 0.944-0.612 1.89-1.22 2.86-1.86 1.85-1.17 3.71-2.33 5.56-3.5 4.36-2.77 8.6-5.67 12.8-8.66 4.05-2.82 8.21-5.47 12.4-8.14l2.27-1.7v-2c0.763-0.268 1.53-0.536 2.31-0.812 2.7-1.19 3.73-2.07 5.69-4.19 2.93-2.5 5.79-4.86 9-7v-2l1.69-0.719c2.85-1.58 4.94-3.55 7.31-5.78 4.56-4.28 4.56-4.28 7.11-5.55 2.35-1.18 3.49-2.6 5.14-4.64 3.05-3.62 6.32-6.67 9.91-9.74 5.4-4.63 10.4-10 14.8-15.6v-2c0.639-0.248 1.28-0.495 1.94-0.75 2.26-1.04 2.26-1.04 2.56-3.25 0.165-0.66 0.33-1.32 0.5-2 0.61-0.293 1.22-0.585 1.85-0.887 2.53-1.31 3.49-2.6 5.09-4.93 1.86-2.61 3.56-4.67 5.88-6.94 2.24-2.3 2.54-3.25 3.19-6.25 0.99-0.33 1.98-0.66 3-1 0.702-1.32 1.37-2.65 2-4 0.642-0.638 0.642-0.638 1.3-1.29 6.33-6.36 11.3-14.5 16-22.1 1.68-2.65 3.44-5.22 5.25-7.78 0.579-0.822 1.16-1.64 1.75-2.49 1.07-1.51 2.14-3.01 3.21-4.52 3.86-5.55 6.85-11.4 9.81-17.5 1.38-2.78 2.81-5.48 4.35-8.18 4.41-7.21 4.41-7.21 6.31-15.2h2c0.311-0.839 0.311-0.839 0.629-1.7 2.03-5.28 4.35-10.3 6.93-15.4 2.66-5.21 4.74-10.3 6.44-15.9 0.468-1.3 0.947-2.59 1.44-3.88 3.06-8.07 5.96-16.2 8.63-24.4 0.582-1.71 1.21-3.4 1.9-5.06 1.79-4.62 2.84-9.43 4.03-14.2 0.391-1.53 0.391-1.53 0.789-3.1 1.55-6.19 2.78-12.3 3.68-18.7 0.542-2.75 1.45-5.1 2.53-7.68 0.382-1.95 0.714-3.91 1-5.88 0.481-3.29 1.07-6.35 2-9.55 2.87-10.2 3.23-21.2 3.66-31.8 0.242-5.57 0.242-5.57 1.34-7.76 0.241-2.74 0.422-5.45 0.555-8.19 0.042-0.841 0.0841-1.68 0.127-2.55 0.43-9.43 0.469-18.9 0.448-28.3-0.00537-2.95-1.13e-5 -5.91 0.00635-8.86 0.00368-9.31-0.117-18.6-0.582-27.9-0.0387-0.801-0.0775-1.6-0.117-2.43-0.159-4.01-0.159-4.01-1.44-7.76-0.187-1.64-0.321-3.28-0.43-4.93-0.0715-1.01-0.143-2.03-0.217-3.08-0.113-1.64-0.113-1.64-0.229-3.31-0.637-8.54-1.43-17-2.62-25.5-0.118-0.87-0.237-1.74-0.359-2.64-0.178-1.21-0.178-1.21-0.36-2.45-0.102-0.7-0.205-1.4-0.311-2.12-0.525-2.21-1.43-3.97-2.47-5.99-0.512-2.24-0.963-4.49-1.38-6.75-1.94-10.2-4.27-20.4-7.62-30.2-0.485-1.53-0.967-3.06-1.45-4.59-3.44-11-7.05-21.9-10.9-32.7-1.72-4.86-3.32-9.7-4.67-14.7h-2c-0.155-1.08-0.155-1.08-0.312-2.19-0.758-3.1-2.04-5.09-3.69-7.81-0.719-1.94-1.44-3.88-2.15-5.83-1.34-3.44-2.98-6.7-4.66-9.99-0.355-0.701-0.709-1.4-1.07-2.12-5.03-9.89-10.5-19.5-16.1-29.1-3.08-5.29-6.09-10.6-9.05-16h-2c-0.246-0.7-0.492-1.4-0.746-2.12-1.44-3.3-3.25-5.99-5.32-8.94-0.396-0.565-0.793-1.13-1.2-1.71-3.42-4.85-6.97-9.6-10.6-14.3-2.07-2.76-4.06-5.57-6.05-8.4-3.75-5.19-7.93-9.82-12.3-14.5-2.12-2.25-4.17-4.56-6.2-6.89-11.8-13.5-24.1-26.9-38.1-38.1-2.11-1.74-3.98-3.5-5.85-5.48-4.46-4.59-9.62-8.31-14.7-12.1-2.05-1.54-4.09-3.1-6.12-4.67-1.43-1.09-2.85-2.17-4.28-3.26-0.67-0.517-1.34-1.03-2.03-1.57-3.37-2.55-6.39-4.62-10.5-5.93v-2c-2.1-1.48-4.19-2.85-6.38-4.19-1.3-0.811-2.59-1.62-3.89-2.44-0.64-0.402-1.28-0.804-1.94-1.22-2.37-1.53-4.64-3.18-6.92-4.84-4.52-3.23-9.28-5.62-14.3-7.95-2.57-1.36-2.57-1.36-3.99-2.82-1.72-1.68-3.23-2.49-5.42-3.47-0.735-0.338-1.47-0.675-2.23-1.02-0.763-0.343-1.53-0.686-2.31-1.04-8.06-3.66-8.06-3.66-11.2-5.53-4.08-2.43-8.48-4.12-12.9-5.96-5.41-2.31-5.41-2.31-7.62-4.52-1.46-0.678-2.94-1.3-4.44-1.88-1.34-0.52-1.34-0.52-2.7-1.05-3.72-1.4-7.47-2.74-11.2-4.05-2.64-1.03-2.64-1.03-5.48-2.49-3.54-1.72-7.14-2.91-10.9-4.04-1.06-0.324-1.06-0.324-2.13-0.654-4.65-1.42-9.31-2.79-14-4.17-1.98-0.628-3.9-1.4-5.82-2.18-5.11-2-10.5-2.79-15.9-3.75-3.39-0.746-3.39-0.746-5.32-1.74-3.32-1.62-6.88-1.98-10.5-2.57-1.5-0.251-3-0.502-4.5-0.754-0.709-0.117-1.42-0.235-2.15-0.356-2.32-0.396-4.61-0.866-6.92-1.33-3.02-0.478-6.04-0.944-9.06-1.4-2.94-0.598-2.94-0.598-5.48-1.63-2.71-1.07-4.86-1.3-7.77-1.46-4.15-0.241-8.27-0.546-12.4-0.975-17-1.71-34-1.87-51.1-1.84-3.22 0.00462-6.44-0.00227-9.66-0.0205-35.7-1.08-35.7-1.08-70.4 5.3zm-532 248 1 2zm-13 44 1 2zm-5 19 1 2zm-5 26 1 2zm-3 17 1 3zm-4 29v5h1v-5h-1zm1107 33 1 4zm-1110 3v10h1v-10h-1zm1112 20 1 2zm-1111 53 1 3zm1109 16v5h1v-5h-1zm-1106 20 1 2zm1101 21 1 2zm-1096 15 1 3zm1092 2 1 2zm-1075 71 1 2z" fill="#FCFDFF"/>
<path transform="translate(809,492)" d="m0 0c4.04 2.25 7.48 5.02 11 8 0.661 0.523 1.32 1.05 2 1.59 2.94 2.38 5.47 4.9 7.89 7.8 3.26 3.77 6.72 7.29 10.3 10.8 0.549 0.543 1.1 1.09 1.66 1.65 2.29 2.26 4.59 4.53 6.89 6.78 1.7 1.67 3.39 3.34 5.07 5.01 0.525 0.511 1.05 1.02 1.59 1.55 1.25 1.24 2.45 2.53 3.63 3.83v2c0.99 0.33 1.98 0.66 3 1 1.46 1.48 1.46 1.48 3.03 3.41 4.53 5.33 9.49 10.2 14.5 15.1 5.47 5.4 10.8 10.8 15.8 16.6 3.46 3.91 7.27 7.49 11 11.1 0.6 0.589 1.2 1.18 1.82 1.79 0.542 0.525 1.08 1.05 1.64 1.59 1.17 1.39 1.17 1.39 1.17 3.39 0.9 0.393 0.9 0.393 1.82 0.794 2.33 1.28 3.44 2.44 5.09 4.49 3.31 3.91 6.82 7.52 10.5 11.1 0.571 0.565 1.14 1.13 1.73 1.71 2.39 2.36 4.78 4.72 7.17 7.07 1.77 1.74 3.52 3.48 5.28 5.22 0.547 0.533 1.09 1.07 1.66 1.62 1.3 1.29 2.55 2.63 3.78 3.99v2c0.99 0.33 1.98 0.66 3 1 1.49 1.52 1.49 1.52 3.1 3.48 4.92 5.81 10.4 11 15.8 16.3 1.17 1.15 1.17 1.15 2.37 2.33 0.71 0.693 1.42 1.39 2.15 2.1 1.54 1.75 1.54 1.75 1.54 3.75h2c1.48 1.5 1.48 1.5 3.19 3.56 3.42 4.02 7.04 7.75 10.8 11.4 8.5 8.5 8.5 8.5 10.3 10.3 1.51 1.5 3.05 2.98 4.59 4.45 2.12 2.25 2.12 2.25 3.12 5.25 0.99 0.33 1.98 0.66 3 1v2h2c1.41 1.43 1.41 1.43 3.06 3.44 3.51 4.15 7.29 7.92 11.2 11.7 1.72 1.88 1.72 1.88 1.72 3.88 0.99 0.33 1.98 0.66 3 1 9.73 9.21 16.5 20.9 22 33 0.357 0.683 0.713 1.37 1.08 2.07 1.36 4.32 1.14 8.47 1.08 13-0.0078 1.45-0.0078 1.45-0.0158 2.92-0.0178 3.07-0.049 6.15-0.0819 9.22-0.0276 3.08-0.0523 6.17-0.0712 9.25-0.0123 1.92-0.0299 3.84-0.0533 5.75-0.00653 0.865-0.0131 1.73-0.0198 2.62-0.00825 0.762-0.0165 1.52-0.025 2.31-0.0122 1.97-0.0122 1.97 1.11 3.88 0.0986 2.88 0.136 5.73 0.129 8.61 0.00263 1.34 0.00263 1.34 0.00531 2.7 0.00441 2.96 0.00148 5.91-0.00189 8.87 6.73e-4 2.05 0.00164 4.1 0.0029 6.15 0.00148 4.3-6.76e-4 8.6-0.00534 12.9-0.00569 5.52-0.00242 11 0.00357 16.6 0.00361 4.24 0.00246 8.47-1.28e-4 12.7-6.68e-4 2.03 1.53e-4 4.07 0.00248 6.1 0.00254 2.84-0.00133 5.69-0.0069 8.53 0.00202 0.843 0.00405 1.69 0.00613 2.55-0.0132 3.62-0.241 6.82-1.14 10.3 0.0055 1.88 0.0508 3.75 0.125 5.62 0.061 8.32-1.42 15.1-7.12 21.4-0.289 0.66-0.577 1.32-0.875 2-2.74 4.87-8.07 7.98-13.1 10-3.94 0.625-3.94 0.625-5.78 0.789-1.77 0.168-3.54 0.427-5.29 0.716-4.37 0.551-8.6 0.635-13 0.624-0.883 0.00175-1.77 0.0035-2.68 0.00531-2.92 0.00439-5.83 0.00148-8.75-0.00189-2.06 6.75e-4 -4.12 0.00165-6.18 0.0029-4.34 0.00147-8.67-6.65e-4 -13-0.00534-5.45-0.0056-10.9-0.00236-16.3 0.00341-19.1 0.0175-38.2 0.0337-57.3-0.406-1.42-0.0316-2.83-0.0588-4.25-0.0813-11.5-0.193-22-1.24-30.4-9.65-3.31-5.33-4.13-9.81-4.12-16-0.00112-1.23-0.00224-2.46-0.00339-3.73 0.00366-1.36 0.00737-2.72 0.0111-4.08 2.42e-4 -1.44-3.53e-5 -2.87-7.93e-4 -4.31-0.00111-3.09 3.25e-4 -6.18 0.00337-9.27 0.00364-4.89-0.00551-9.78-0.0178-14.7-0.00202-0.826-0.00404-1.65-0.00613-2.5-0.00417-1.69-0.00837-3.38-0.0126-5.07-0.0281-11.4-0.0483-22.8-0.031-34.2 0.0116-7.68 0.00193-15.4-0.0321-23.1-0.0171-4.06-0.0235-8.13-0.00388-12.2 0.0183-3.83 0.00854-7.65-0.0223-11.5-0.00635-1.4-0.00256-2.8 0.0124-4.2 0.0724-7.32 0.06-13.2-5.04-18.9-4.97-4.03-11.2-3.7-17.3-3.65-1.24-0.00285-1.24-0.00285-2.5-0.00575-2.72-0.00369-5.44 0.00698-8.15 0.0182-1.91 0.00119-3.83 0.00164-5.74 0.00139-4.01 0.00156-8.03 0.00983-12 0.0233-5.08 0.0168-10.2 0.0208-15.2 0.0201-3.96 2.76e-4 -7.91 0.00582-11.9 0.013-1.87 0.00313-3.74 0.00514-5.61 0.00589-9.94 0.00837-19.9 0.136-29.8 0.49-1.32 0.0327-1.32 0.0327-2.66 0.0662-4.81 0.203-7.81 0.724-11.8 3.61h-2c-2.05 8.06-2.26 15.8-2.2 24.1 0.00385 1.39 0.00677 2.78 0.00885 4.17 0.00628 2.97 0.0188 5.94 0.0361 8.91 0.0272 4.7 0.0389 9.41 0.0483 14.1 0.0221 9.98 0.0612 20 0.102 29.9 0.0441 10.8 0.0852 21.6 0.107 32.4 0.00994 4.67 0.0296 9.34 0.0569 14 0.015 2.91 0.0216 5.82 0.0259 8.72 0.0055 1.98 0.0211 3.96 0.037 5.95 0.00122 10.3-1.38 18-8.16 26.1-4.01 3.28-7.66 3.92-12.8 3.75-3.81-0.224-3.81-0.224-7.31 0.938-1.55 0.0946-3.1 0.126-4.65 0.127-0.981 0.00282-1.96 0.00564-2.97 0.00854-1.62-0.00304-1.62-0.00304-3.27-0.00613-1.14 0.00175-2.27 0.0035-3.44 0.00531-3.78 0.00442-7.55 0.00148-11.3-0.00189-2.63 6.74e-4 -5.25 0.00164-7.88 0.0029-5.52 0.00182-11-5.83e-4 -16.6-0.00534-6.35-0.00541-12.7-0.00371-19 0.00183-6.13 0.00513-12.3 0.00453-18.4 0.00162-2.59-6.63e-4 -5.19 1.36e-4 -7.78 0.00248-39.9 0.0281-39.9 0.0281-48.7-5.14l-3.06-1.62c-0.639-0.454-1.28-0.908-1.94-1.38v-2c-0.99-0.33-1.98-0.66-3-1-7.42-7.42-8.51-16.7-8.55-26.8 0.00618-1.53 0.0128-3.06 0.0198-4.59-0.00707-1.63-0.0158-3.27-0.0261-4.9-0.0224-4.41-0.0196-8.82-0.0107-13.2 0.00513-3.69-0.0022-7.38-0.00947-11.1-0.017-8.71-0.0135-17.4 0.00329-26.1 0.0169-8.97 0.00106-17.9-0.0312-26.9-0.0267-7.72-0.034-15.4-0.0255-23.2 0.00492-4.6 0.00276-9.2-0.0178-13.8-0.0184-4.33-0.0124-8.65 0.0122-13 5e-3 -1.58 0.00155-3.17-0.0111-4.75-0.112-15.2-0.112-15.2 5.65-21.7 0.715-0.908 1.43-1.82 2.17-2.75 0.666-0.743 1.33-1.48 2.02-2.25 1.01-1.14 1.01-1.14 2.04-2.31 1.77-1.69 1.77-1.69 3.77-1.69 0.227-0.557 0.454-1.11 0.688-1.69 1.69-2.97 3.84-4.96 6.31-7.31l2.5-2.5c1.6-1.6 3.23-3.19 4.88-4.75 2.2-2.31 4.04-4.58 5.94-7.12 2.94-3.86 6.1-6.96 9.83-10.1 1.69-1.43 3.21-2.91 4.73-4.51 2.12-2.06 2.12-2.06 4.12-2.06 0.0877-0.589 0.175-1.18 0.266-1.79 0.932-2.81 2.2-3.79 4.48-5.65 0.727-0.61 1.45-1.22 2.2-1.85 0.675-0.566 1.35-1.13 2.05-1.71 3.18-3.02 6.1-6.22 9-9.5 5.92-6.7 5.92-6.7 9-9.5h2c0.165-0.681 0.33-1.36 0.5-2.06 1.86-3.64 4.24-5.46 7.35-8.05 2.12-1.86 3.89-3.8 5.71-5.95 2.17-2.56 4.34-4.8 6.94-6.94 2.44-2.02 4.52-4.08 6.56-6.5 3.41-4.03 7.12-7.68 10.9-11.4 4.81-4.74 9.15-9.57 13.3-14.9 2.89-3.5 6.32-6.28 9.8-9.18 3.15-2.92 5.75-5.95 8.31-9.38 2.94-3.87 6.13-6.91 9.85-10 2.61-2.29 4.68-4.9 6.84-7.61 4.03-4.87 8.2-9.14 13-13.2 2.67-2.42 4.92-5.12 7.24-7.87 2.21-2.45 4.65-4.47 7.25-6.5 1.71-1.64 2.43-3.32 3.48-5.42 2.12-0.75 2.12-0.75 4-1 0.135-0.889 0.135-0.889 0.273-1.8 0.912-2.76 2.09-3.65 4.35-5.45 2.91-2.42 5.44-4.86 7.88-7.75 2.97-3.5 6.18-6.46 9.67-9.42 1.98-1.66 1.98-1.66 4.2-4.02 3.95-3.85 8.27-7.18 12.6-10.6 0.99-0.825 1.98-1.65 3-2.5 4.48-2.24 8.11-2.67 13-1.5z" fill="#FCFDFF"/>
<path transform="translate(807 302)" d="m0 0c7.88 4.59 14.3 11.9 20.7 18.2 0.628 0.615 1.26 1.23 1.9 1.86 0.581 0.58 1.16 1.16 1.76 1.76 0.784 0.778 0.784 0.778 1.58 1.57 1.13 1.37 1.13 1.37 1.13 3.37 0.587 0.249 1.17 0.498 1.78 0.754 2.53 1.42 3.93 2.96 5.79 5.18 2.47 2.95 2.47 2.95 5.15 5.69 1.29 1.37 1.29 1.37 1.29 3.37 0.572 0.235 1.14 0.469 1.73 0.711 2.79 1.59 4.42 3.48 6.52 5.91 3.61 4.13 7.35 8 11.3 11.8 1.43 1.59 1.43 1.59 1.43 3.59h2c1.34 1.37 1.34 1.37 2.94 3.32 5.12 6.03 10.8 11.5 16.5 17 1.42 1.39 2.83 2.78 4.24 4.18 0.835 0.818 1.67 1.64 2.53 2.48 1.82 2.03 1.82 2.03 1.82 4.03 0.99 0.33 1.98 0.66 3 1 1.47 1.5 1.47 1.5 3.06 3.44 3.74 4.44 7.82 8.44 12 12.5 1.94 2.1 1.94 2.1 1.94 4.1h2c1.26 1.32 1.26 1.32 2.69 3.12 2.1 2.54 4.2 4.73 6.75 6.81 3.33 2.74 6.05 5.8 8.79 9.13 1.78 2.04 1.78 2.04 4.21 3.84 2.77 2.26 4.79 4.66 7 7.47 5.96 8.2 5.96 8.2 14.6 12.6l-0.0352-1.96c-0.0634-6.62 0.081-13.2 0.348-19.9 0.0225-0.8 0.045-1.6 0.0681-2.42 0.24-5.23 0.97-9.2 3.62-13.8 4.11-2.26 8.16-2.31 12.7-2.32 1.14-0.0149 1.14-0.0149 2.31-0.0301 2.51-0.0291 5.03-0.0428 7.54-0.0539 1.75-0.0115 3.5-0.023 5.26-0.0345 3.67-0.021 7.34-0.0327 11-0.0397 4.7-0.011 9.39-0.0591 14.1-0.116 3.62-0.0373 7.23-0.0477 10.9-0.0507 1.73-0.00605 3.46-0.0221 5.2-0.0484 2.42-0.0342 4.84-0.0304 7.27-0.0174 0.713-0.0184 1.43-0.0369 2.16-0.0558 2.78 0.0466 4.95 0.251 7.14 2.05 4.66 5.37 4.58 10.5 4.56 17.3 0.00258 1.11 0.00516 2.21 0.00781 3.35-0.133 3.02-0.133 3.02-0.632 4.94-0.537 2.24-0.632 4.2-0.641 6.5-0.00571 0.877-0.0114 1.75-0.0173 2.66-0.00112 0.955-0.00224 1.91-0.00339 2.89-0.00496 1.01-0.00993 2.02-0.015 3.07-0.0146 3.35-0.0214 6.7-0.0269 10-0.00575 2.33-0.0115 4.66-0.0173 6.99-0.0105 4.89-0.0164 9.77-0.0198 14.7-0.00548 6.25-0.0295 12.5-0.058 18.8-0.0186 4.81-0.0238 9.63-0.0254 14.4-0.00302 2.3-0.011 4.61-0.0242 6.91-0.0171 3.23-0.0152 6.46-0.00869 9.69-0.00921 0.947-0.0184 1.89-0.0279 2.87 0.045 7.18 1.06 12.9 5.84 18.5 0.923 0.856 1.85 1.71 2.8 2.59 3.21 3.01 6.24 6.01 9.11 9.34 3.68 4.27 7.62 8.21 11.6 12.2 14.4 14.1 14.4 14.1 16 19 1.33 0.671 2.66 1.34 4 2 1.8 1.61 3.55 3.29 5.25 5 0.892 0.887 1.78 1.77 2.7 2.69 2.05 2.31 2.05 2.31 2.05 4.31 0.589 0.251 1.18 0.503 1.79 0.762 2.49 1.39 3.84 2.86 5.65 5.05 2.7 3.24 5.55 6.23 8.56 9.19 6.24 6.16 12.4 12.3 18 19 1.65 1.68 3.32 3.34 5 5 3.17 3.14 6.34 6.29 9.5 9.44 0.842 0.833 1.68 1.67 2.55 2.53 14.9 14.9 14.9 14.9 16.7 23.8-0.746 10.9-13.6 20.3-20.8 27.4-3.28 3.21-6.31 6.57-9.26 10.1-1.76 1.95-3.64 3.62-5.64 5.32-4.69 3.98-8.61 8.51-12.4 13.3-3.29 4.11-3.29 4.11-6.56 5.2-0.66 0.99-1.32 1.98-2 3-3.74 1.97-6.81 2.43-11 2-3.93-1.53-6.49-3.38-9.41-6.37-1.98-2.02-4-4-6.02-5.98-1.63-1.61-3.26-3.22-4.89-4.83-0.836-0.819-1.67-1.64-2.53-2.48-0.79-0.783-1.58-1.57-2.39-2.37-0.722-0.712-1.44-1.42-2.19-2.16-1.57-1.8-1.57-1.8-1.57-3.8-0.835-0.309-0.835-0.309-1.69-0.625-3.28-1.95-5.02-4.32-7.31-7.38v-2c-0.99-0.33-1.98-0.66-3-1v-2c-0.558-0.22-1.12-0.441-1.69-0.668-3.04-1.76-4.93-4.01-7.25-6.64-2.56-2.9-5.1-5.72-7.88-8.42-2.18-2.27-2.18-2.27-2.18-4.27-0.572-0.247-1.14-0.495-1.73-0.75-2.62-1.44-4.41-3.13-6.52-5.25-0.706-0.701-1.41-1.4-2.14-2.12-1.61-1.88-1.61-1.88-1.61-3.88-0.831-0.325-0.831-0.325-1.68-0.656-3.06-1.77-5.14-4.21-7.45-6.84-5.96-6.66-12.2-13-18.7-19.2-2.21-2.34-2.21-2.34-2.21-4.34h-2v-2h-2c-1.41-1.4-1.41-1.4-3.06-3.38-0.634-0.743-1.27-1.48-1.92-2.25-0.998-1.18-0.998-1.18-2.02-2.38-9.32-10.8-19.6-20.7-29.8-30.8-2.15-2.18-4.18-4.43-6.2-6.74-4.29-4.81-8.81-9.35-13.4-13.9-2.81-2.78-5.52-5.58-8.04-8.62-2.47-3.06-2.47-3.06-5.5-5.44-3.19-2.67-5.77-5.53-8.45-8.7-1.57-1.88-1.57-1.88-3.32-3.48-1.29-1.38-1.29-1.38-1.29-3.38h-2c-3.7-3.45-7.09-7.21-10.5-10.9-0.69-0.749-0.69-0.749-1.39-1.51-2.33-2.55-4.59-5.12-6.76-7.8-2.23-2.87-2.23-2.87-5.34-4.75v-2h-2c-1.21-1.44-2.41-2.88-3.57-4.36-1.58-1.91-1.58-1.91-4.49-4.14-3.06-2.6-4.77-5.15-6.94-8.5-2.78-3.01-5.77-5.66-8.88-8.31-3.46-2.99-6.46-6.19-9.39-9.7-2.14-2.45-4.42-4.71-6.74-6.99-1.2-1.2-2.4-2.4-3.59-3.59-0.638-0.638-1.28-1.28-1.93-1.93-5.88-5.88-5.88-5.88-7.74-7.74-1.09-1.08-2.18-2.16-3.28-3.23-2.44-2.39-3.94-4.46-5.46-7.5-0.99-0.33-1.98-0.66-3-1-1.72-1.74-1.72-1.74-3.5-3.88-2.5-2.98-2.5-2.98-5.22-5.76-1.28-1.37-1.28-1.37-1.28-3.37-0.835-0.34-0.835-0.34-1.69-0.688-2.96-1.68-4.9-3.9-7.31-6.31-5.83-5.28-5.83-5.28-13-8-2.17 0.147-2.17 0.147-4 1-0.33 0.99-0.66 1.98-1 3-0.99 0.33-1.98 0.66-3 1-1.61 1.63-1.61 1.63-3.19 3.62-3.07 3.64-6.34 6.71-10 9.73-1.89 1.62-1.89 1.62-3.41 3.84-0.459 0.593-0.918 1.19-1.39 1.8h-2c-0.186 0.701-0.371 1.4-0.562 2.12-1.69 3.37-3.6 4.87-6.5 7.19-2.78 2.42-5.04 5.2-7.36 8.05-1.58 1.64-1.58 1.64-4.58 2.64-0.684 1.32-1.35 2.66-2 4-1.49 0.99-1.49 0.99-3 2-1.19 2.05-1.19 2.05-2 4h-3c-0.268 0.639-0.536 1.28-0.812 1.94-1.19 2.06-1.19 2.06-4.19 3.06-0.33 0.825-0.66 1.65-1 2.5-0.33 0.825-0.66 1.65-1 2.5-0.99 0.33-1.98 0.66-3 1-1.01 1.33-2.01 2.66-3 4h-2c-0.268 0.804-0.536 1.61-0.812 2.44-0.392 0.846-0.784 1.69-1.19 2.56-0.99 0.33-1.98 0.66-3 1-0.33 0.66-0.66 1.32-1 2-0.33 0.66-0.66 1.32-1 2-0.99 0.33-1.98 0.66-3 1l-0.875 1.75c-1.51 3.02-3.72 4.87-6.12 7.25-2.62 2.91-5.21 5.84-7.79 8.77-0.728 0.736-1.46 1.47-2.21 2.23h-2c-0.268 0.639-0.536 1.28-0.812 1.94-1.19 2.06-1.19 2.06-4.19 3.06-0.33 0.66-0.66 1.32-1 2-0.33 0.66-0.66 1.32-1 2-0.99 0.33-1.98 0.66-3 1-0.33 0.66-0.66 1.32-1 2-0.33 0.66-0.66 1.32-1 2-0.99 0.33-1.98 0.66-3 1-0.33 0.66-0.66 1.32-1 2-0.33 0.66-0.66 1.32-1 2-0.99 0.33-1.98 0.66-3 1-0.144 0.639-0.289 1.28-0.438 1.94-0.186 0.681-0.371 1.36-0.562 2.06-1.32 0.684-2.66 1.35-4 2-0.674 1.33-1.34 2.66-2 4-1.36 1.59-1.36 1.59-2.93 3.14-0.591 0.587-1.18 1.17-1.79 1.78-0.636 0.623-1.27 1.25-1.93 1.89-0.656 0.651-1.31 1.3-1.99 1.97-2.09 2.08-4.2 4.15-6.3 6.22-2.1 2.07-4.19 4.14-6.29 6.22-1.3 1.29-2.61 2.58-3.91 3.86-2.4 2.37-4.65 4.63-6.66 7.35-0.396 0.519-0.793 1.04-1.2 1.57h-2c-0.34 1.08-0.34 1.08-0.688 2.19-1.59 3.4-3.57 5.26-6.31 7.81-0.866 0.908-1.73 1.82-2.62 2.75-2.38 2.25-2.38 2.25-5.38 3.25-0.33 0.66-0.66 1.32-1 2-0.33 0.66-0.66 1.32-1 2-0.99 0.33-1.98 0.66-3 1-0.247 0.722-0.495 1.44-0.75 2.19-1.53 3.43-3.43 4.82-6.31 7.13-2.75 2.39-4.97 5.13-7.26 7.95-1.78 1.84-3.4 2.64-5.68 3.73-0.683 1.33-1.35 2.66-2 4-0.99 0.33-1.98 0.66-3 1-0.402 0.835-0.402 0.835-0.812 1.69-1.72 3.35-4.27 5.94-7.19 8.31h-2c-0.255 0.571-0.51 1.14-0.773 1.73-3.97 7.35-10.9 12.9-17.2 18.3-2.27 2.09-3.82 3.68-5.31 6.38-1.92 2.98-4.07 4.73-6.79 6.95-2.7 2.37-4.95 5.06-7.27 7.79-2.09 2.42-4.33 4.65-6.62 6.88-0.866 0.908-1.73 1.82-2.62 2.75-2.38 2.25-2.38 2.25-5.38 3.25-0.186 0.866-0.186 0.866-0.375 1.75-0.939 3.38-3.04 4.96-5.62 7.25-0.722 0.351-1.44 0.701-2.19 1.06-2.38 1.23-2.65 2.56-3.81 4.94-3.29 4.46-7.13 8.08-11.4 11.6-2.16 1.91-3.82 4.17-5.61 6.42h-2c-0.33 1.32-0.66 2.64-1 4-0.639 0.103-1.28 0.206-1.94 0.312l-2.06 0.688c-0.33 0.99-0.66 1.98-1 3-4.26 1.42-8.23 1.73-12.4 0-0.516-0.33-1.03-0.66-1.56-1v-2c-0.549-0.0605-1.1-0.121-1.66-0.183-3.31-1.16-5.33-3.42-7.73-5.88-0.51-0.512-1.02-1.02-1.55-1.55-1.08-1.09-2.16-2.18-3.23-3.27-1.62-1.65-3.25-3.29-4.88-4.92-5-5.04-9.89-10.1-14.5-15.5-2.03-2.34-4.21-4.49-6.43-6.65-2.44-2.39-4.88-4.79-7.31-7.19l-1.96-1.9c-0.609-0.603-1.22-1.21-1.85-1.83-0.555-0.544-1.11-1.09-1.68-1.65-1.21-1.43-1.21-1.43-1.21-3.43h-2c-2.38-3.71-2.49-6.66-2-11 2.28-6.02 5.13-10.7 10-15 1.24-1.24 1.24-1.24 2.5-2.5 1.24-1.24 1.24-1.24 2.5-2.5 0.825-0.846 1.65-1.69 2.5-2.56 2.39-2.33 4.88-4.37 7.5-6.44l1.69-1.75c1.31-1.25 1.31-1.25 3.31-1.25 0.135-0.889 0.135-0.889 0.273-1.8 0.912-2.76 2.09-3.65 4.35-5.45 3.72-3.09 6.79-6.4 9.83-10.1 1.54-1.6 1.54-1.6 4.54-2.6 0.228-0.92 0.228-0.92 0.461-1.86 0.709-2.81 1.91-3.6 4.16-5.39 2.93-2.44 5.48-4.9 7.94-7.81 2.73-3.24 5.62-5.92 8.96-8.52 1.59-1.37 1.59-1.37 2.45-3.39 1.23-2.42 2.62-3.58 4.72-5.28 2.87-2.42 5.39-4.88 7.81-7.75 2.34-2.76 4.74-5.16 7.5-7.5 4.11-3.5 7.52-7.39 11-11.5 1.41-1.61 2.83-3.21 4.25-4.81 0.967-1.09 0.967-1.09 1.95-2.21 1.09-1.21 2.21-2.39 3.36-3.54 1.48-1.49 2.79-3.06 4.12-4.69 2.88-3.39 6.05-6.24 9.43-9.12 2.42-2.09 4.65-4.33 6.88-6.62 0.763-0.743 1.53-1.48 2.31-2.25 2.28-2.34 4.42-4.72 6.56-7.19 3-3.42 6.08-6.39 9.68-9.18 1.7-1.63 2.43-3.27 3.45-5.39 1.62-1.71 3.29-3.37 5-5l5-5c0.677-0.679 1.35-1.36 2.05-2.06 2.49-2.5 5.01-4.97 7.52-7.45 1.7-1.69 3.41-3.37 5.11-5.06 1.3-1.28 1.3-1.28 2.63-2.58 1.24-1.23 1.24-1.23 2.51-2.49 1.13-1.11 1.13-1.11 2.28-2.25 1.78-1.99 2.78-3.72 3.89-6.12 1.7-1.64 1.7-1.64 3.69-3.25 2.87-2.42 5.39-4.88 7.81-7.75 2.92-3.45 6.09-6.3 9.53-9.22 2.65-2.4 4.88-5.08 7.18-7.8 1.85-2.05 3.81-3.81 5.91-5.6 3.37-2.87 6.11-5.9 8.88-9.38 10.7-12.6 10.7-12.6 15-14 0.686-1.32 1.35-2.66 2-4 2.57-3.37 5.11-6.18 8.38-8.88 3.38-2.8 6.17-5.92 9.01-9.25 2.59-3.01 5.44-5.75 8.3-8.49 2.89-2.81 5.51-5.52 7.75-8.89 2.42-3.55 5.37-6.12 8.64-8.88 2.45-2.08 4.68-4.33 6.92-6.62 5-5 5-5 7.44-7.38 3.54-3.62 6.8-7.46 10-11.4 3.23-3.9 6.7-7.15 10.6-10.4 2.69-2.44 4.95-5.15 7.29-7.92 1.64-1.81 3.32-3.3 5.21-4.84 3.52-2.88 6.02-6.25 8.73-9.89 2.17-2.66 4.57-4.72 7.29-6.79 1.6-1.33 1.6-1.33 2.46-3.35 1.18-2.36 2.51-3.6 4.52-5.29 0.608-0.521 1.22-1.04 1.84-1.58 1.66-1.17 1.66-1.17 3.66-1.17 0.33-0.99 0.66-1.98 1-3 7.57-5.59 7.57-5.59 11.9-3.8z" fill="#FCFDFF"/>
<path transform="translate(1058,534)" d="m0 0h1v21h-1v-21z" fill="#000100"/>
<path transform="translate(738,778)" d="m0 0h1v19h-1v-19z" fill="#000100"/>
<path transform="translate(333,673)" d="m0 0 1 4z" fill="#000100"/>
</svg>
