<?xml version="1.0" encoding="UTF-8"?>
<svg version="1.1" viewBox="0 0 1600 456" width="1280" height="1280" xmlns="http://www.w3.org/2000/svg">
<path transform="translate(242)" d="m0 0c1.1 0.156 2.21 0.312 3.34 0.473 6.39 0.89 12.8 0.201 19.2-0.244 6.02-0.346 10.7 0.0839 16.5 1.77 1.83-0.0322 3.67-0.0662 5.5-0.129 5.89 0.304 11.7 1.87 17.5 3.13v2c0.949-0.206 1.9-0.412 2.88-0.625l3.12-0.375c0.99 0.99 0.99 0.99 2 2 3.49 0.844 6.99 1.47 10.5 2.12 3.39 0.855 5.59 1.97 8.48 3.88 1.67 0.719 3.33 1.44 5.01 2.14 14.7 6.39 27.7 14.7 40 24.9 1.2 0.973 1.2 0.973 2.43 1.96 1.57 1.29 3.08 2.65 4.57 4.04v2c0.619 0.248 1.24 0.495 1.88 0.75 2.53 1.49 2.84 2.69 4.12 5.25 2.03 1.27 2.03 1.27 4 2v2l4 2v2c0.99 0.33 1.98 0.66 3 1 1.68 1.92 3.23 3.83 4.75 5.88 0.66 0.871 0.66 0.871 1.33 1.76 3.39 4.53 6.49 9.2 9.44 14 1.43 2.34 1.43 2.34 3.05 4.44 2.28 3.05 3.79 6.48 5.42 9.9 0.793 1.61 0.793 1.61 1.6 3.26 5.85 12 10.5 24.5 13.8 37.5 0.51 1.99 1.1 3.95 1.71 5.91 2.96 11.4 2.17 23.7 2.23 35.4 0.0165 2.46 0.0436 4.93 0.082 7.39 0.247 15.9-0.762 30.3-5.43 45.6-0.244 0.813-0.488 1.63-0.739 2.46-5.04 16.7-12.4 32.2-20.3 47.7-1.01 1.99-2 4-2.99 6-1.51 3.03-3.12 5.96-4.89 8.85-0.513 0.843-1.03 1.69-1.55 2.55-1.75 2.84-3.5 5.67-5.28 8.48-0.876 1.4-1.73 2.81-2.58 4.23-0.441 0.735-0.882 1.47-1.34 2.23-0.396 0.67-0.791 1.34-1.2 2.03-0.551 0.727-0.551 0.727-1.11 1.47h-2c-0.122 0.594-0.244 1.19-0.37 1.8-0.992 3.47-3.21 6.14-5.32 9.01-0.451 0.624-0.902 1.25-1.37 1.89-2.37 3.25-4.79 6.4-7.45 9.42-2.46 2.55-2.46 2.55-3.34 4.74-1.58 2.91-3.8 4.82-6.16 7.13-2.38 2.89-4.7 5.83-7.01 8.77-0.656 0.736-1.31 1.47-1.99 2.23h-2c-0.226 0.544-0.451 1.09-0.684 1.65-1.71 3.06-3.99 5.45-6.38 7.98-1.35 1.44-1.35 1.44-2.72 2.91-0.506 0.539-1.01 1.08-1.53 1.63-1.19 1.29-2.37 2.6-3.53 3.92-6.46 7.31-13.3 14.2-20.2 21.1-2.01 2-4.01 4.01-6.02 6.02-11.3 11.3-11.3 11.3-17.4 16.5-1.94 1.66-3.73 3.45-5.51 5.29-3.19 3.23-6.48 6.25-9.93 9.21-2.27 1.96-4.48 3.97-6.7 5.98-1.14 0.996-1.14 0.996-2.31 2.01-1.61 1.4-3.19 2.85-4.75 4.3-5.74 2.6-11.2 2.64-17.3 1.5-4.64-2.27-8.26-5.5-12-9-0.659-0.606-1.32-1.21-2-1.84-4.39-4.05-8.72-8.16-13-12.3-5.42-5.16-10.9-10.2-16.7-15-3.1-2.63-5.66-5.57-8.29-8.66-3.78-4.27-7.9-8.21-12-12.2-0.826-0.828-1.65-1.66-2.5-2.51-1.64-1.64-3.29-3.26-4.95-4.88-0.777-0.759-1.55-1.52-2.36-2.3-0.79-0.767-1.58-1.53-2.39-2.32-1.79-1.99-1.79-1.99-1.79-3.99-0.99-0.33-1.98-0.66-3-1-1.68-1.67-1.68-1.67-3.44-3.75-0.615-0.723-1.23-1.45-1.86-2.19-1.29-1.57-2.56-3.15-3.82-4.75-1.91-2.45-1.91-2.45-4.56-4.94-2.31-2.38-2.31-2.38-3.31-5.38-0.99-0.33-1.98-0.66-3-1-1.19-2.56-1.19-2.56-2-5h-2c-1.61-1.88-3.09-3.77-4.56-5.75-0.664-0.88-0.664-0.88-1.34-1.78-0.92-1.22-1.84-2.45-2.75-3.67-1.25-1.67-2.5-3.33-3.76-4.98-7.29-9.63-14.1-19.4-20.3-29.7-0.912-1.52-1.83-3.03-2.75-4.54-6.86-11.3-13.4-22.5-18.7-34.6-0.803-1.82-1.64-3.62-2.48-5.43-3.9-8.59-6.46-17.3-8.82-26.4-0.797-3.03-1.67-6.03-2.54-9.04h-1c-3.22-20.2-4.62-39.6-3-60l0.151-2.24c0.886-12.8 3.94-24.6 7.85-36.8 0.315-1.01 0.315-1.01 0.637-2.03 3.12-9.84 7.56-18.9 12.4-28 0.552-1.05 1.1-2.1 1.67-3.18 8.19-15.3 8.19-15.3 11.3-16.8 1.02-1.65 2.02-3.32 3-5 3.97-5.44 8.05-10.3 13.3-14.5 1.86-1.61 3.37-3.34 4.95-5.23 6.97-8.2 15.4-15.8 24.8-21.2 1.84-1.16 3.67-2.33 5.5-3.5 13.9-8.89 27.6-15.3 43.5-19.5 3.06-0.741 3.06-0.741 4.98-2.96 2.23-0.578 2.23-0.578 4.98-1.04 1.5-0.254 1.5-0.254 3.03-0.514 1.57-0.254 1.57-0.254 3.18-0.514 1.03-0.173 2.06-0.347 3.12-0.525 4.28-0.716 8.56-1.41 12.9-1.97 2.72-0.141 2.72-0.141 3.82-1.44zm-32.3 62.9c-5.37 2.04-5.37 2.04-7.88 2.62-2.35 0.637-3.19 1.76-4.86 3.5-1.43 0.856-2.89 1.67-4.38 2.44-3.53 1.9-6.54 3.99-9.62 6.56-1.1 0.632-1.1 0.632-2.22 1.28-10.6 6.6-19.2 15.9-26.8 25.7-0.584 0.742-1.17 1.48-1.77 2.25-22.2 28.8-29.7 65.8-25.5 102 1.03 7 2.88 13.6 5.25 20.2 0.248 0.713 0.495 1.43 0.75 2.16 0.71 1.96 1.47 3.9 2.25 5.84 0.555 1.4 0.555 1.4 1.12 2.84 4.35 10.8 9.79 20.9 16.9 30.2h2c0.165 0.681 0.33 1.36 0.5 2.06 1.89 3.71 4.39 5.68 7.55 8.32 2.11 1.76 4 3.68 5.95 5.62 5.79 5.62 5.79 5.62 13 9v2c1.56 1.23 1.56 1.23 3.63 2.39 0.78 0.459 1.56 0.919 2.36 1.39 0.848 0.484 1.7 0.968 2.57 1.47 0.866 0.496 1.73 0.992 2.62 1.5 10.1 5.64 20.4 9.63 31.4 13 0.644 0.199 1.29 0.398 1.95 0.603 11.1 3.2 22.2 4.01 33.7 3.96 1.27-0.00491 2.54-0.00983 3.85-0.0149 36.1-0.449 69.1-16.1 94.5-41.6 14.9-15.4 25.4-34.2 31.4-54.7 0.276-0.859 0.552-1.72 0.836-2.6 4.79-16.4 4.85-34.5 3.16-51.4-0.113-1.16-0.227-2.31-0.344-3.5-3.79-29.7-20.6-61.4-43.7-80.5-1.55-1.39-3.09-2.79-4.62-4.19-19.3-17.1-47.5-28.9-73.3-29-0.741-0.00688-1.48-0.0138-2.25-0.0208-2.38-0.0171-4.76-0.0235-7.14-0.026-1.21-0.00251-1.21-0.00251-2.45-0.00507-18.1-0.00225-33.5 2.64-50.5 9.13z" fill="#8776F9"/>
<path transform="translate(520 94.9)" d="m0 0c1.21-0.00638 2.41-0.0128 3.66-0.0193 1.34-0.00153 2.67-0.00264 4.01-0.00337 1.38-0.00322 2.76-0.00658 4.14-0.0101 2.91-0.00601 5.82-0.00784 8.73-0.00725 2.94 8.01e-5 5.88-0.00667 8.82-0.0205 71.1-0.33 71.1-0.33 96.6 23.8 10.1 10.2 17.4 23 19.4 37.4 0.162 0.996 0.162 0.996 0.328 2.01 3.32 23.7-1.95 47.7-15.9 67.2-6.2 7.64-14.6 13.6-23.4 17.8 7.42 12.3 14.9 24.5 22.7 36.6 4.36 6.82 8.67 13.7 13 20.5 5.12 8.21 10.3 16.4 15.4 24.6 0.884 1.4 1.77 2.8 2.65 4.19 0.902 1.42 1.82 2.84 2.74 4.24 0.459 0.708 0.918 1.42 1.39 2.14 0.416 0.631 0.831 1.26 1.26 1.91 0.905 1.74 0.905 1.74 0.905 4.74-32.8 2.83-32.8 2.83-40.7-1.44-3.88-3.91-5.55-8.8-7.3-13.9-1.81-4.61-4.68-8.51-7.47-12.6-1.11-1.69-2.22-3.38-3.32-5.08-0.543-0.832-1.09-1.66-1.65-2.52-2.99-4.62-5.92-9.28-8.85-13.9-5.03-7.99-10.1-15.9-15.2-23.9-0.644-1-1.29-2.01-1.95-3.04-0.568-0.885-1.14-1.77-1.72-2.68-2.3-3.62-4.57-7.26-6.85-10.9h-44c-0.33 29.7-0.66 59.4-1 90h-33c-0.0226-31.3-0.0405-62.6-0.0511-94-0.00125-3.69-0.00255-7.39-0.00387-11.1-2.62e-4 -0.735-5.25e-4 -1.47-7.95e-4 -2.23-0.00436-11.9-0.0122-23.8-0.0214-35.8-0.00934-12.2-0.0149-24.5-0.0169-36.7-0.00138-7.55-0.00573-15.1-0.0138-22.6-0.00589-5.78-0.00654-11.6-0.00519-17.3-2.77e-4 -2.38-0.00228-4.76-0.0061-7.13-0.00493-3.23-0.0038-6.46-0.00105-9.69-0.00291-0.954-0.00583-1.91-0.00883-2.89 0.0178-7.69 0.0178-7.69 6.75-7.71zm26.4 32.1v92c39.6 2.96 39.6 2.96 73.7-12.6 9.1-9.57 12.7-22.2 12.7-35.1-0.35-11.5-4.35-22-12.4-30.4-0.607-0.634-1.21-1.27-1.84-1.92-18.7-17.9-49.3-12.1-72.2-12.1z" fill="#000102"/>
<path transform="translate(414,141)" d="m0 0v2c0.99 0.99 0.99 0.99 2 2 0.33 0.66 0.66 1.32 1 2 2.02 1.13 2.02 1.13 4 2-0.536 1.03-1.07 2.06-1.62 3.12-1.25 2.91-1.43 3.65-0.688 6.88 0.433 0.99 0.866 1.98 1.31 3 0.393 1.29 0.768 2.58 1.12 3.88 0.433 1.55 0.433 1.55 0.875 3.12v-3c2.31-0.33 4.62-0.66 7-1v2c1.21 0.217 1.21 0.217 2.44 0.438 2.56 0.562 2.56 0.562 3.56 1.56 0.0884 2.45 0.115 4.87 0.0977 7.32-0.00212 1.1-0.00212 1.1-0.00429 2.22-0.00561 2.34-0.0182 4.69-0.0309 7.03-0.00501 1.59-0.00958 3.17-0.0137 4.76-0.011 3.89-0.0283 7.79-0.0488 11.7h2c0.124 0.639 0.248 1.28 0.375 1.94 0.206 0.681 0.413 1.36 0.625 2.06 0.66 0.33 1.32 0.66 2 1 0.344 5.62-0.132 9.22-3 14-3.19 0.938-3.19 0.938-6 1 0.143 0.87 0.143 0.87 0.289 1.76 0.708 4.99 0.837 8.52-1.29 13.2-0.33 0.33-0.66 0.66-1 1 0.66 0.66 1.32 1.32 2 2-0.33 0.99-0.66 1.98-1 3 0.144 0.557 0.289 1.11 0.438 1.69 1.6 6.6 0.431 11.8-2.44 17.8-0.311 0.68-0.622 1.36-0.943 2.06-3.2 6.93-6.63 13.8-10.1 20.6-1.02 2.01-2.01 4.02-3.01 6.04-1.51 3.03-3.12 5.95-4.88 8.84-0.513 0.843-1.03 1.69-1.55 2.55-1.75 2.84-3.5 5.67-5.28 8.48-0.876 1.4-1.73 2.81-2.58 4.23-0.661 1.1-0.661 1.1-1.34 2.23-0.396 0.67-0.791 1.34-1.2 2.03-0.367 0.485-0.735 0.969-1.11 1.47h-2c-0.122 0.594-0.244 1.19-0.37 1.8-0.992 3.47-3.21 6.14-5.32 9.01-0.451 0.624-0.902 1.25-1.37 1.89-2.37 3.25-4.79 6.4-7.45 9.42-2.46 2.55-2.46 2.55-3.34 4.74-1.58 2.91-3.8 4.82-6.16 7.13-2.38 2.89-4.7 5.83-7.01 8.77-0.984 1.1-0.984 1.1-1.99 2.23h-2c-0.226 0.544-0.451 1.09-0.684 1.65-1.71 3.06-3.99 5.45-6.38 7.98-0.898 0.962-1.8 1.92-2.72 2.91-0.758 0.809-0.758 0.809-1.53 1.63-1.19 1.29-2.37 2.6-3.53 3.92-6.46 7.31-13.3 14.2-20.2 21.1-2.01 2-4.01 4.01-6.02 6.02-11.3 11.3-11.3 11.3-17.4 16.5-1.94 1.66-3.73 3.45-5.51 5.29-3.18 3.22-6.47 6.24-9.91 9.19-3.13 2.71-6.16 5.51-9.21 8.3-1.88 1.5-1.88 1.5-3.88 1.5v-2c-0.99 0.33-1.98 0.66-3 1v-2h-5c0.99-0.66 1.98-1.32 3-2-0.99-0.33-1.98-0.66-3-1-1.12-4.75-1.12-4.75 0-7h-2v-3c-2.96-1.48-5.74-1.06-9-1-0.33-1.32-0.66-2.64-1-4h-5l0.0352-2.15c0.00902-0.919 0.018-1.84 0.0273-2.79l0.0352-2.78c0.162-2.25 0.162-2.25-1.1-3.29-2.33-0.368-4.66-0.702-7-1v-2h-4c-1.84-3.78-2.16-5.95-1-10h8l-2-6-2.88-0.25c-3.12-0.75-3.12-0.75-4.31-2.47-0.945-2.65-1.01-4.72-0.938-7.53l0.0547-2.7 0.0703-2.05c1.46 2.65 2 3.89 2 7 0.144-1.13 0.289-2.27 0.438-3.44 0.562-3.56 0.562-3.56 1.56-4.56 0.0408-2 0.0425-4 0-6-1.48 1.98-1.48 1.98-3 4v-4c-0.784 0.0412-1.57 0.0825-2.38 0.125-2.62-0.125-2.62-0.125-4.62-2.12h-2v-10c1.98-0.33 3.96-0.66 6-1-0.66-0.66-1.32-1.32-2-2h4v-2c1.65 0.33 3.3 0.66 5 1v-3h5c-0.667 1.33-1.33 2.67-2 4 2.64 1.41 5.07 2.37 8 3 0.99-2.97 0.99-2.97 2-6-0.99-0.33-1.98-0.66-3-1-0.33-2.31-0.66-4.62-1-7 2.34 0.256 4.68 0.593 7 1 0.33 0.66 0.66 1.32 1 2 0.66 0.33 1.32 0.66 2 1v4c-0.99-0.33-1.98-0.66-3-1v2h7c1.56-4.39 1.56-4.39 2-9h7c-0.66 0.33-1.32 0.66-2 1 0.628 2.93 1.59 5.36 3 8-0.639 0.103-1.28 0.206-1.94 0.312-0.681 0.227-1.36 0.454-2.06 0.688-0.33 0.99-0.66 1.98-1 3h3v-3c3.38-0.845 5.67-1.11 9 0 0.33-0.66 0.66-1.32 1-2 0.33 0.33 0.66 0.66 1 1 2.01-0.287 4.01-0.619 6-1 0.33-3.3 0.66-6.6 1-10-0.33 0.66-0.66 1.32-1 2h-2c-1.12-3.31-1.12-3.31-2-7 0.66-0.99 1.32-1.98 2-3 2.65-0.252 5.05-0.326 7.69-0.25 1.04 0.00773 1.04 0.00773 2.11 0.0156 12.2 0.182 12.2 0.182 14.2 2.23 1.8-2.21 2.99-3.97 3.94-6.69 0.351-0.763 0.701-1.53 1.06-2.31 1.32-0.33 2.64-0.66 4-1h-12c-0.33 0.99-0.66 1.98-1 3-1.18 1.67-1.18 1.67-3 3-2.85 0.363-2.85 0.363-6.06 0.312-1.06-0.00387-2.13-0.00773-3.22-0.0117-2.71-0.301-2.71-0.301-4.71-2.3-0.681-0.165-1.36-0.33-2.06-0.5-0.639-0.165-1.28-0.33-1.94-0.5-0.33-0.66-0.66-1.32-1-2-0.99-0.33-1.98-0.66-3-1v-3h-3v-2h-7c0.66-0.33 1.32-0.66 2-1v-2c-7.54 0.718-14.7 2.16-22 4v-2c-2.97-0.66-5.94-1.32-9-2 0.33-0.99 0.66-1.98 1-3-1.24-0.144-2.48-0.289-3.75-0.438-4.59-0.535-8.88-1.71-13.3-3l-2.6-0.746c-2.34-0.816-2.34-0.816-5.34-2.82 0.33-0.99 0.66-1.98 1-3 1.18 0.268 2.35 0.536 3.56 0.812 39.5 8.77 77.8 6.98 113-14.7 29.4-18.8 48.2-45.9 57.7-79.1h2v2c2.97 0.495 2.97 0.495 6 1-0.33-1.32-0.66-2.64-1-4 0.66-0.33 1.32-0.66 2-1 0.392-2.55 0.392-2.55 0.5-5.5 0.156-3.03 0.156-3.03 0.5-5.5 0.66-0.33 1.32-0.66 2-1 0.99 3.96 0.99 3.96 2 8h-2c0.66 1.65 1.32 3.3 2 5h2c0.33-2.31 0.66-4.62 1-7-0.66-0.33-1.32-0.66-2-1-1-3-1-3-0.0625-5.19 0.351-0.598 0.701-1.2 1.06-1.81-0.99-0.33-1.98-0.66-3-1-0.188-3.38-0.188-3.38 0-7 0.99-0.66 1.98-1.32 3-2 0.724-2.06 0.724-2.06 1-4h2c-0.152-0.656-0.304-1.31-0.461-1.99-0.666-3.72-0.932-7.43-1.16-11.2-0.0516-0.724-0.103-1.45-0.156-2.19-0.34-5.38-0.34-5.38 0.781-7.62-0.0891-2.56-0.233-5.08-0.438-7.62-0.0522-0.706-0.104-1.41-0.158-2.14-0.13-1.75-0.266-3.49-0.404-5.23h-2c-1.86-3.13-2.2-5.37-2-9h4c0.33-0.66 0.66-1.32 1-2 2-1 2-1 6-1z" fill="#8373F9"/>
<path transform="translate(242)" d="m0 0c1.1 0.156 2.21 0.312 3.34 0.473 6.39 0.89 12.8 0.201 19.2-0.244 6.02-0.346 10.7 0.0839 16.5 1.77 1.83-0.0322 3.67-0.0662 5.5-0.129 5.89 0.304 11.7 1.87 17.5 3.13v2c0.949-0.206 1.9-0.412 2.88-0.625l3.12-0.375c0.99 0.99 0.99 0.99 2 2 3.49 0.844 6.99 1.47 10.5 2.12 3.39 0.855 5.59 1.97 8.48 3.88 1.67 0.719 3.33 1.44 5.01 2.14 14.7 6.39 27.7 14.7 40 24.9 1.2 0.973 1.2 0.973 2.43 1.96 1.57 1.29 3.08 2.65 4.57 4.04v2c0.619 0.248 1.24 0.495 1.88 0.75 2.53 1.49 2.84 2.69 4.12 5.25 2.03 1.27 2.03 1.27 4 2v2l4 2v2c0.99 0.33 1.98 0.66 3 1 1.68 1.92 3.23 3.83 4.75 5.88 0.66 0.871 0.66 0.871 1.33 1.76 3.39 4.53 6.49 9.2 9.44 14 1.43 2.34 1.43 2.34 3.05 4.44 2.28 3.05 3.79 6.48 5.42 9.9 0.793 1.61 0.793 1.61 1.6 3.26 5.85 12 10.5 24.5 13.8 37.5 0.51 1.99 1.1 3.95 1.71 5.91 2.96 11.4 2.17 23.7 2.23 35.4 0.0165 2.46 0.0436 4.93 0.082 7.39 0.247 16-0.758 30.3-5.43 45.6-0.482 1.64-0.482 1.64-0.974 3.31-0.728 2.36-1.51 4.68-2.34 7-0.395 1.15-0.395 1.15-0.799 2.31-0.621 1.79-1.25 3.58-1.89 5.37h-1c-0.362-1.79-0.715-3.58-1.06-5.38-0.197-0.998-0.394-2-0.598-3.02-0.34-2.6-0.34-2.6 0.66-4.6-0.99-0.66-1.98-1.32-3-2 0.481-0.392 0.962-0.784 1.46-1.19 1.97-2.32 2.03-3.8 2.23-6.81 0.0986-1.3 0.0986-1.3 0.199-2.62 0.0854-1.79 0.113-3.58 0.113-5.38 0.949-0.206 1.9-0.412 2.88-0.625 3.34-1.07 3.34-1.07 4.5-4.12 1.23-6.06 1.23-6.06-0.875-11.6-0.495-0.536-0.99-1.07-1.5-1.62 0.33-0.66 0.66-1.32 1-2h-2c-1.01-8.7-1.08-17.3-0.963-26.1 0.00838-0.884 0.0168-1.77 0.0254-2.68 0.0174-1.2 0.0174-1.2 0.0352-2.42 0.108-1.87 0.108-1.87-1.1-2.85-0.66 0.66-1.32 1.32-2 2v-3c-1.65-0.33-3.3-0.66-5-1-0.33 0.99-0.66 1.98-1 3v-3h-3c0.33 1.65 0.66 3.3 1 5-0.66-0.33-1.32-0.66-2-1-0.852-2.84-0.852-2.84-1.62-6.38-0.391-1.74-0.391-1.74-0.789-3.52-0.848-4.49-0.375-6.96 1.41-11.1-0.639-0.103-1.28-0.206-1.94-0.312l-2.06-0.688c-0.33-0.99-0.66-1.98-1-3-0.66-0.66-1.32-1.32-2-2 0.33-0.66 0.66-1.32 1-2-4.95 1.98-4.95 1.98-10 4 0.33 2.64 0.66 5.28 1 8 0.66-1.32 1.32-2.64 2-4 0.966 4.23 1.34 8.44 1.62 12.8 0.0516 0.684 0.103 1.37 0.156 2.07 0.116 1.72 0.172 3.45 0.219 5.18-0.33 0.33-0.66 0.66-1 1-0.0167 1.56 0.0369 3.13 0.121 4.69 0.0483 0.944 0.0967 1.89 0.146 2.86 0.0561 0.993 0.112 1.99 0.17 3.01 0.0522 0.997 0.104 1.99 0.158 3.02 0.13 2.47 0.265 4.94 0.404 7.42h-2c-0.33 1.65-0.66 3.3-1 5-0.99 0.33-1.98 0.66-3 1 0.33 2.31 0.66 4.62 1 7 0.66-0.99 1.32-1.98 2-3v4c0.66 0.33 1.32 0.66 2 1h-2c-0.692 1.85-0.692 1.85-1 4 0.66 0.99 1.32 1.98 2 3-0.375 3.69-0.375 3.69-1 7-0.99 0.33-1.98 0.66-3 1-0.33-1.98-0.66-3.96-1-6h2c-0.309-0.598-0.619-1.2-0.938-1.81-1.06-2.19-1.06-2.19-2.06-5.19-0.33 3.96-0.66 7.92-1 12h-2v4c-0.99 0.33-1.98 0.66-3 1-0.99-0.66-1.98-1.32-3-2v-2c-0.66-0.33-1.32-0.66-2-1l0.621-2.29c6.85-28 4.55-63.7-10.1-89.3-0.508-0.81-1.02-1.62-1.54-2.45-0.837-1.53-0.837-1.53-1.69-3.09-5.87-10.7-12.5-20.4-21.3-28.9-5-5-5-5-6.55-6.66-16-16.8-39.6-25.3-61.4-31.3 1.75-5.75 1.75-5.75 4-8 1.52-0.495 1.52-0.495 3.06-1 3.06-0.658 3.06-0.658 3.94-3h2v-2c4.45-0.495 4.45-0.495 9-1v2c2.48-1.48 2.48-1.48 5-3-0.33-1.32-0.66-2.64-1-4 0.99-0.33 1.98-0.66 3-1-1.24-0.454-2.48-0.908-3.75-1.38-6.34-2.4-6.34-2.4-8.25-3.62-0.33-0.99-0.66-1.98-1-3h2c0.99-1.48 0.99-1.48 2-3-1.13-0.0606-2.26-0.121-3.43-0.184-1.48-0.0844-2.96-0.169-4.45-0.254-0.746-0.0393-1.49-0.0786-2.26-0.119-5.64-0.33-5.64-0.33-7.86-1.44v-2c-1.65 0.33-3.3 0.66-5 1v-5c-1.72-0.0735-1.72-0.0735-3.46-0.148-1.49-0.075-2.98-0.151-4.47-0.227-1.13-0.0464-1.13-0.0464-2.29-0.0938-1.93-0.104-3.85-0.31-5.78-0.531-0.33-0.66-0.66-1.32-1-2-0.66 0.66-1.32 1.32-2 2v-3c-0.553 2.08-1 3.84-1 6h-2v2c-2.88 0.125-2.88 0.125-6 0-0.99-0.99-0.99-0.99-2-2-0.33 0.33-0.66 0.66-1 1-0.959 0.217-0.959 0.217-1.94 0.438-2.27 0.435-2.27 0.435-4.06 2.56-6.36 1.1-12.7 1.04-19.1 0.981-5.06-0.03-9.9 0.304-14.9 1.02 0.99 0.99 0.99 0.99 2 2-0.33 0.33-0.66 0.66-1 1 4.26 2.36 4.26 2.36 9 3v2h-3c-0.33 1.65-0.66 3.3-1 5h-7c0.66 0.99 1.32 1.98 2 3-0.846-0.0722-1.69-0.144-2.56-0.219-6.17-0.505-12.2-0.903-18.4-0.781-0.33-0.99-0.66-1.98-1-3-0.33 0.33-0.66 0.66-1 1v2.5 2.5c-1 1-1 1-3.29 1.1-0.917-0.0116-1.83-0.0232-2.78-0.0352-0.919-0.00902-1.84-0.018-2.79-0.0273-0.71-0.0116-1.42-0.0232-2.15-0.0352 0.33 0.99 0.66 1.98 1 3 0.66 0.33 1.32 0.66 2 1 0.33-0.33 0.66-0.66 1-1h2v5c0.66 0.33 1.32 0.66 2 1 1.62 1.38 1.62 1.38 3 3v3h-5v2h-10v-3c-0.619-0.144-1.24-0.289-1.88-0.438-2.12-0.562-2.12-0.562-4.12-1.56v3l2 1c-1.32 0.33-2.64 0.66-4 1v2c1.32-0.33 2.64-0.66 4-1v2c-4.02 0.696-7.08 1.17-11 0l0.359 1.83c1.05 6.52 1.05 6.52-0.984 9.73-2.38 1.44-2.38 1.44-7.38 1.44v10c-0.742 0.206-1.49 0.412-2.25 0.625-3.59 1.8-4.83 3.9-6.75 7.38v3c-0.812 1.87-0.812 1.87-2 4-0.454 0.908-0.908 1.82-1.38 2.75-0.536 0.742-1.07 1.48-1.62 2.25h-4v8c-1.32-0.33-2.64-0.66-4-1v-3c-1.58 1.25-1.58 1.25-3 3v4c-2.38 2.75-2.38 2.75-5 5h-2c-0.0928 1.08-0.0928 1.08-0.188 2.19-1.07 3.7-2.92 5.34-5.81 7.81h-2l-1 6h-2v-2l-11-1v5l-8 2c-0.33-0.99-0.66-1.98-1-3-1.9-0.601-1.9-0.601-4-1-0.99-0.66-1.98-1.32-3-2-0.629-4.87 0.743-8.9 2.5-13.4 0.266-0.691 0.531-1.38 0.805-2.09 3.06-7.76 6.8-15.2 10.7-22.5l1.67-3.17c8.19-15.3 8.19-15.3 11.3-16.8 1.02-1.65 2.02-3.32 3-5 3.97-5.44 8.05-10.3 13.3-14.5 1.86-1.61 3.37-3.34 4.95-5.23 6.97-8.2 15.4-15.8 24.8-21.2 1.84-1.16 3.67-2.33 5.5-3.5 13.9-8.89 27.6-15.3 43.5-19.5 3.06-0.741 3.06-0.741 4.98-2.96 2.23-0.578 2.23-0.578 4.98-1.04 1.5-0.254 1.5-0.254 3.03-0.514 1.57-0.254 1.57-0.254 3.18-0.514 1.03-0.173 2.06-0.347 3.12-0.525 4.28-0.716 8.56-1.41 12.9-1.97 2.72-0.141 2.72-0.141 3.82-1.44z" fill="#8776FA"/>
<path transform="translate(260,140)" d="m0 0c5.12 2 7.8 4.78 11.2 8.89 1.68 1.98 3.43 3.8 5.29 5.61 2.43 2.38 4.68 4.84 6.88 7.44 2.53 2.94 5.19 5.52 8.12 8.06 3.49 3.03 6.49 6.18 9.46 9.71 3.2 3.59 6.66 6.92 10.1 10.3 1.34 1.31 2.63 2.67 3.91 4.04v2c0.99 0.33 1.98 0.66 3 1 1.72 1.74 1.72 1.74 3.5 3.88 2.39 2.86 2.39 2.86 4.94 5.56 5.41 5.42 7.13 9.1 7.25 16.7-0.0101 1.02-0.0202 2.04-0.0307 3.09 0.00478 1.07 0.00957 2.13 0.0145 3.23 0.00339 2.24-0.00575 4.49-0.0267 6.73-0.0268 3.43-1.94e-4 6.86 0.0317 10.3-0.0033 2.18-0.00971 4.37-0.0195 6.55 0.0101 1.02 0.0202 2.05 0.0307 3.1-0.0757 4.6-0.193 7.12-2.83 11-3.41 2.21-5.38 2.53-9.43 2.6-1.27 0.0335-2.55 0.067-3.86 0.102-1.34 0.0104-2.68 0.0208-4.02 0.0312-1.29 0.0335-2.58 0.067-3.91 0.102-3.89 0.0779-7.76 0.0735-11.7 0.0234l-3.92-0.042c-1.23-0.0454-2.47-0.0909-3.74-0.138-1.1-0.0359-2.2-0.0719-3.34-0.109-4.14-0.981-5.56-2.22-8-5.71-0.71-3.29-0.698-6.5-0.672-9.86-0.0127-0.945-0.0255-1.89-0.0386-2.86-0.0363-3.01-0.039-6.02-0.0395-9.03-0.0216-3.02-0.05-6.05-0.0823-9.07-0.0178-1.88-0.0281-3.76-0.0302-5.64 0.403-4.09 0.403-4.09-1.14-7.54-2.59-0.0885-5.16-0.115-7.75-0.0977-0.775 0.00141-1.55 0.00283-2.35 0.00429-2.49 0.00562-4.97 0.0182-7.46 0.0309-1.68 0.00501-3.36 0.00958-5.04 0.0137-4.13 0.011-8.26 0.0283-12.4 0.0488 0.00666 0.555 0.0133 1.11 0.0202 1.68 0.0664 5.77 0.112 11.5 0.145 17.3 0.0151 2.16 0.0356 4.31 0.0615 6.47 0.0364 3.1 0.0534 6.2 0.0667 9.29 0.0155 0.964 0.031 1.93 0.0469 2.92 2.27e-4 0.901 4.53e-4 1.8 6.87e-4 2.73 0.00666 0.791 0.0133 1.58 0.0202 2.4-0.459 2.79-1.43 4.16-3.36 6.19-2.96 0.562-2.96 0.562-6.58 0.645-0.651 0.0189-1.3 0.0378-1.97 0.0573-1.38 0.0365-2.77 0.0636-4.15 0.0821-2.07 0.028-4.13 0.083-6.19 0.144-24.5 0.63-24.5 0.63-29.9-2.53-4.33-4.62-3.07-12.8-3.05-18.8-0.0182-1.39-0.039-2.78-0.0625-4.18-0.0516-3.46-0.059-6.92-0.0555-10.4-0.00703-2.09-0.0413-4.19-0.0822-6.28-0.00968-0.676-0.0194-1.35-0.0293-2.05-0.0266-1.85-0.0606-3.71-0.0952-5.56 0.389-6.21 3.1-9.78 7.2-14.2h2c0.165-0.681 0.33-1.36 0.5-2.06 1.84-3.6 4.13-5.41 7.2-7.97 4.65-3.97 9.35-8.26 12.9-13.2 0.45-0.571 0.9-1.14 1.36-1.73h2c0.276-0.592 0.552-1.18 0.836-1.79 2.65-5.03 6.74-8.93 11-12.6 3.8-3.23 7.04-6.78 10.3-10.5 3.34-3.82 6.24-6.79 10.8-9.08 0.33-0.99 0.66-1.98 1-3 1.96-1.4 3.95-2.74 6-4z" fill="#8775FA"/>
<path transform="translate(843 210)" d="m0 0c12.5 11 21 26.6 25.1 42.8v4c-21.4 7.82-42.8 15.4-64.4 22.9-15.3 5.27-30.5 10.6-45.6 16.1 4.43 9.07 11.8 15.1 21.2 18.8 14.2 4.41 28.7 3.32 41.9-3.38 1.9-1.03 3.78-2.08 5.65-3.16 2.28-1.27 2.28-1.27 5.28-2.27 1.99 3.22 3.97 6.45 5.94 9.69 0.564 0.912 1.13 1.82 1.71 2.76 0.538 0.886 1.08 1.77 1.63 2.69 0.497 0.812 0.995 1.62 1.51 2.46 1.26 2.49 1.8 4.66 2.22 7.4-23.5 12.4-47.6 19.1-73.9 12-13.1-4.08-23.4-10.4-33.1-20-0.625-0.59-1.25-1.18-1.89-1.79-6.11-6.27-9.56-14.3-13.1-22.2-0.364-0.804-0.727-1.61-1.1-2.44-6.58-17-5.02-39 1.91-55.5 8.95-19.6 23.5-32.8 43.2-41.1 25.8-9.52 53.9-6.64 75.9 10.2zm-82.8 25.6c-9.67 11.8-11.4 25.4-11.2 40.2 6.83-0.544 12.7-3.01 19.1-5.5 2.56-0.988 5.11-1.97 7.67-2.96 0.7-0.269 1.4-0.539 2.12-0.816 10.6-4.08 21.3-7.98 32-11.9 2.1-0.775 4.2-1.55 6.3-2.32 4.96-1.83 9.93-3.66 14.9-5.49 0-6.45-3.77-10.6-8.09-15.2-9.77-9.17-19.5-11.3-32.5-11.1-12 0.522-22.1 6.41-30.2 15.1z" fill="#000101"/>
<path transform="translate(1327 206)" d="m0 0c2.5 2.21 4.82 4.57 7.18 6.93 1.06 0.862 2.12 1.72 3.19 2.56 2.69 2.33 3.36 3.38 4.81 6.44 0.94 1.43 1.9 2.85 2.88 4.25 5.93 8.83 11 19.1 12.1 29.8-5.36 3.49-10.7 5.27-16.9 7.06-3.16 0.941-6.2 2.04-9.27 3.23-3.58 1.36-7.23 2.52-10.9 3.71-10.7 3.52-21.4 7.26-32 11-3.56 1.25-7.12 2.5-10.7 3.75-1.2 0.422-1.2 0.422-2.43 0.853-4.61 1.62-9.24 3.18-13.9 4.69-1.96 0.693-3.81 1.51-5.69 2.39-3.39 1.34-5.71 1.58-9.31 1.31v4c0.99 0.495 0.99 0.495 2 1 0.804 1.03 1.61 2.06 2.44 3.12 7.36 8.66 18.4 13.9 29.6 15.1 13.6 1 25-1.99 36.7-9.05 2.24-1.17 2.24-1.17 5.24-1.17 0.269 0.722 0.539 1.44 0.816 2.19 1.17 2.79 2.54 5.24 4.12 7.81 0.504 0.825 1.01 1.65 1.53 2.5 1.04 1.7 2.14 3.37 3.29 5 1.25 2.5 1.25 2.5 1.44 5.05-1.92 3.94-5.35 4.91-9.25 6.57-1.11 0.501-1.11 0.501-2.24 1.01-20.9 9.33-45 11.5-66.8 3.39-17.5-7-32.8-19.2-40.9-36.5-6.63-15.7-8.34-31.3-5-48 0.313-1.61 0.313-1.61 0.633-3.25 1.51-6.83 3.89-12.7 7.37-18.8 0.756-1.34 0.756-1.34 1.53-2.71 10-16.8 27-29.2 45.9-34.2 20.5-4.85 44.9-3.92 62.4 8.98zm-75.8 27.9c-0.496 0.526-0.993 1.05-1.5 1.59-8.32 9.18-10.4 18.9-11.2 30.9-0.0729 1.08-0.0729 1.08-0.147 2.18-0.0995 1.77-0.138 3.55-0.165 5.32 0.33 0.33 0.66 0.66 1 1 6.22-0.0603 11.7-1.7 17.5-3.96 0.787-0.299 1.57-0.599 2.38-0.907 2.55-0.973 5.1-1.96 7.65-2.95 2.67-1.02 5.34-2.04 8.01-3.05 1.81-0.69 3.62-1.38 5.43-2.07 8.98-3.43 18-6.73 27.1-10 1.43-0.519 2.86-1.04 4.29-1.56 3.23-1.17 6.47-2.34 9.71-3.51-1.65-9.15-8.3-17-15.8-22.3-16.5-9.96-41.7-4.09-54.2 9.29z" fill="#7159F8"/>
<path transform="translate(1029 207)" d="m0 0c9.69 9.32 12.6 20.1 12.9 33.3 0.00568 1.89 7.6e-4 3.79-0.0135 5.68 2.92e-4 1.05 5.84e-4 2.09 8.85e-4 3.17-0.00138 3.41-0.0169 6.82-0.0326 10.2-0.00374 2.38-0.00658 4.76-0.00858 7.15-0.00759 6.23-0.0272 12.5-0.0494 18.7-0.0205 6.38-0.0296 12.8-0.0397 19.1-0.0214 12.5-0.0565 25-0.0977 37.4h-32c-0.00935-2.91-0.0187-5.82-0.0283-8.82-0.0339-9.65-0.0895-19.3-0.156-28.9-0.0394-5.85-0.0716-11.7-0.0871-17.5-0.0152-5.65-0.0497-11.3-0.0973-16.9-0.0148-2.15-0.0227-4.3-0.0236-6.45 0.591-17.1 0.591-17.1-6.22-32.2-5.78-5.75-12.9-7.22-20.8-7.44-11.2 0.339-19.2 3.8-27.6 11.4-12.6 14.4-14.3 30.3-14.4 48.6-0.0187 1.69-0.0383 3.38-0.0587 5.07-0.051 4.42-0.0908 8.83-0.128 13.2-0.0402 4.52-0.0912 9.04-0.141 13.6-0.0964 8.84-0.18 17.7-0.258 26.5h-32v-141h29c1.12 13.5 1.12 13.5 1.06 19.8-0.00902 1.19-0.018 2.38-0.0273 3.61-0.0116 0.871-0.0232 1.74-0.0352 2.64h2c0.245-0.724 0.49-1.45 0.742-2.2 5.39-12 18.5-20.9 30.3-25.8 20.1-6.88 41.6-5.82 58.4 8.19z" fill="#000102"/>
<path transform="translate(1386,187)" d="m0 0h23c0.33 3.63 0.66 7.26 1 11 5.61 1.9 10.5 2.28 16.4 2.23 1.38 4.38e-4 1.38 4.38e-4 2.78 8.85e-4 3.01-0.00139 6.03-0.0169 9.04-0.0326 2.1-0.00373 4.19-0.00658 6.29-0.00858 5.51-0.00762 11-0.0272 16.5-0.0494 5.62-0.0205 11.2-0.0296 16.9-0.0397 11-0.0214 22-0.0555 33.1-0.0977v3h-2c-0.394 0.83-0.394 0.83-0.797 1.68-2.4 4.64-5.37 8.94-8.2 13.3-0.568 0.897-1.14 1.79-1.72 2.72-0.525 0.815-1.05 1.63-1.59 2.47-0.706 1.1-0.706 1.1-1.43 2.23-0.625 0.783-0.625 0.783-1.26 1.58h-2c-0.247 0.722-0.495 1.44-0.75 2.19-1.37 3.08-3.11 5.22-5.25 7.81-1 1.67-2 3.33-3 5-1.77 2.55-3.57 5.07-5.38 7.6-1.41 2.09-2.56 4.12-3.62 6.4h-2c-0.371 1.05-0.371 1.05-0.75 2.12-1.42 3.27-3.12 6.02-5.25 8.88h-2c-0.371 1.33-0.371 1.33-0.75 2.69-1.33 3.52-2.88 5.42-5.25 8.31-1.74 2.33-3.43 4.7-5.12 7.06-0.442 0.612-0.884 1.22-1.34 1.85-2.1 2.93-4.07 5.78-5.54 9.08h-2c-0.246 0.709-0.492 1.42-0.746 2.15-1.41 3.21-3.2 5.69-5.32 8.48-2.98 3.91-2.98 3.91-4.94 8.38 25.4 0.33 50.8 0.66 77 1-0.33 0.66-0.66 1.32-1 2-0.0845 1.74-0.107 3.48-0.0977 5.23 0.00322 1.03 0.00645 2.06 0.00977 3.12 0.00838 1.08 0.0168 2.16 0.0254 3.27 0.00451 1.09 0.00902 2.18 0.0137 3.3 0.0118 2.69 0.0283 5.39 0.0488 8.08-16.4 0.2-32.8 0.384-49.2 0.547-7.61 0.076-15.2 0.158-22.8 0.252-6.63 0.0827-13.3 0.155-19.9 0.214-3.51 0.0318-7.03 0.069-10.5 0.119-3.92 0.0553-7.83 0.0871-11.8 0.117-1.17 0.0201-2.34 0.0403-3.55 0.061-1.06 0.00429-2.13 0.00858-3.22 0.013-0.927 0.0101-1.85 0.0203-2.81 0.0307-0.731-0.117-1.46-0.233-2.21-0.354-0.66-0.99-1.32-1.98-2-3 0.348-0.453 0.696-0.907 1.05-1.37 1.59-2.08 3.17-4.17 4.76-6.25 0.547-0.713 1.09-1.43 1.66-2.16 2.98-3.94 5.35-7.76 7.53-12.2 0.988-1.01 1.99-2.01 3-3 1.79-2.27 3.45-4.64 5.12-7 0.455-0.629 0.91-1.26 1.38-1.91 1.91-2.68 3.45-4.96 4.5-8.09h2c0.247-0.71 0.495-1.42 0.75-2.15 1.4-3.18 3.15-5.64 5.25-8.41 2.31-3.06 4.42-5.94 6-9.44h2c0.371-1.07 0.371-1.07 0.75-2.15 1.4-3.18 3.15-5.64 5.25-8.41 2.31-3.06 4.42-5.94 6-9.44h2c0.227-0.681 0.454-1.36 0.688-2.06 1.4-3.13 3.12-5.58 5.19-8.29 1.31-1.77 1.31-1.77 2.12-4.65 0.986-1.01 1.99-2.01 3-3 1.1-1.5 2.16-3.02 3.19-4.56 0.53-0.785 1.06-1.57 1.61-2.38 1.38-1.95 1.38-1.95 1.21-4.06-0.55-0.00809-1.1-0.0162-1.67-0.0245-5.78-0.0868-11.6-0.186-17.3-0.293-2.15-0.038-4.3-0.0729-6.45-0.104-31.5-0.468-31.5-0.468-38-5.99-6.51-6.82-8.44-12.7-8.45-22-0.029-0.992-0.058-1.98-0.0879-3.01-0.162-7.18-0.162-7.18 1.03-9.56z" fill="#7259FA"/>
<path transform="translate(260,87)" d="m0 0c3.19 1.1 5.15 3.04 7.45 5.45 1.95 1.94 4.03 3.7 6.12 5.49 3.5 3.08 5.96 6.09 8.44 10.1 2.49 2.68 5.02 5.02 7.88 7.31 3.19 2.59 5.72 5.63 8.38 8.75 2.37 2.63 4.95 4.76 7.75 6.94 0.217-1.61 0.217-1.61 0.438-3.25 0.401-2.68 0.878-5.15 1.56-7.75 3.42-0.0872 6.83-0.14 10.2-0.188 0.968-0.0251 1.94-0.0503 2.93-0.0762 1.4-0.0145 1.4-0.0145 2.83-0.0293 0.859-0.0157 1.72-0.0314 2.6-0.0476 3.05 0.436 4.32 1.04 6.38 3.34 0.438 3.08 0.438 3.08 0.355 6.83-0.00803 0.667-0.0161 1.33-0.0243 2.02-0.029 2.13-0.0851 4.27-0.144 6.4-0.0427 2.12-0.0797 4.24-0.111 6.36-0.0314 1.93-0.0783 3.87-0.126 5.8-0.0542 7.08-0.0542 7.08 3.18 13 0.949 0.846 1.9 1.69 2.88 2.56 1.03 1.18 2.05 2.36 3.06 3.56 3.77 4.38 7.87 8.4 12 12.4 1.34 1.31 2.63 2.67 3.91 4.04v2h3c0.944 1.76 1.89 3.52 2.83 5.27 1.22 2.03 1.22 2.03 4.17 3.73 0.188 3.62 0.188 3.62 0 7-0.99 0.33-1.98 0.66-3 1-0.686 1.32-1.35 2.66-2 4-3.53 4.84-6.67 7.28-12 10-4.83-3.16-8.41-6.41-12.1-10.8-3.41-3.94-7.18-7.53-10.9-11.2-1.67-1.67-3.33-3.33-5-5-0.813-0.802-1.63-1.6-2.46-2.43-7.48-7.39-7.48-7.39-10.7-11.3-2.6-3.13-5.5-5.68-8.65-8.25-1.9-1.76-3.51-3.53-5.18-5.5-5.24-6.07-11-11.6-16.7-17.3-2.24-2.21-4.47-4.42-6.7-6.64-0.504-0.496-1.01-0.992-1.53-1.5-2.26-2.24-4.31-4.47-6.23-7.01-1.73-2.53-1.73-2.53-5.1-2.48-1.36 0.155-1.36 0.155-2.75 0.312-0.33 0.99-0.66 1.98-1 3-1.95 1.84-4.01 3.49-6.09 5.18-1.97 1.87-2.73 3.41-3.91 5.82-1.7 1.64-1.7 1.64-3.69 3.25-2.87 2.42-5.39 4.88-7.81 7.75-2.28 2.7-4.61 5.04-7.31 7.31-4.33 3.66-8.03 7.8-11.8 12-2.39 2.64-4.88 5.13-7.39 7.65-1.12 1.28-2.22 2.57-3.31 3.88-2.4 2.79-4.86 5.21-7.69 7.56-2.92 2.47-5.21 4.99-7.5 8.06-2.86 3.85-5.96 6.87-9.64 9.93-1.67 1.41-3.21 2.88-4.73 4.45-2.12 2.12-2.12 2.12-4.12 3.12-5.55-2.07-8.96-5.62-12.9-9.88-0.889-0.918-0.889-0.918-1.8-1.86-2.4-2.59-4.11-4.45-5.02-7.9 0.999-3.4 3.15-4.92 5.7-7.37 0.938-0.928 1.88-1.86 2.84-2.81 0.498-0.491 0.995-0.982 1.51-1.49 2.25-2.23 4.5-4.46 6.75-6.69 1.18-1.17 2.36-2.33 3.54-3.5 8.98-8.85 8.98-8.85 16.9-18.7 2.19-2.78 4.85-4.91 7.56-7.18 2.97-2.62 5.42-5.61 7.91-8.68 3.73-4.58 7.62-8.54 12.1-12.4 2.42-2.09 4.65-4.33 6.88-6.62 0.771-0.763 1.54-1.53 2.34-2.31 5.57-5.62 10.9-11.5 16-17.6 3.86-4.54 8.02-8.42 12.7-12.1 0.722-0.722 1.44-1.44 2.19-2.19 1.81-1.81 1.81-1.81 3.81-2.81z" fill="#8775F9"/>
<path transform="translate(264,12)" d="m0 0h4c0.33 0.99 0.66 1.98 1 3 0.705-0.174 1.41-0.348 2.14-0.527 3.06-0.506 5.59-0.369 8.68-0.0352 1.46 0.153 1.46 0.153 2.96 0.309 1.1 0.126 1.1 0.126 2.23 0.254v5h5v2c6.27 0.33 12.5 0.66 19 1-0.66 1.65-1.32 3.3-2 5h-2v2c0.552 0.122 1.1 0.245 1.67 0.371 2.62 0.709 5.06 1.67 7.58 2.69 0.892 0.362 1.78 0.724 2.7 1.1 1.01 0.416 1.01 0.416 2.05 0.84-1.32 1.32-2.64 2.64-4 4 0.33 0.66 0.66 1.32 1 2-1.98 0.66-3.96 1.32-6 2v-2c-2.97 0.33-5.94 0.66-9 1v2h-2c-0.33 0.99-0.66 1.98-1 3-1.73 0.681-1.73 0.681-3.5 1.38-1.15 0.536-2.31 1.07-3.5 1.62-1.05 2.58-1.05 2.58-1 5-3.75 1.25-6.1 0.589-10 0-2.65-0.112-5.28-0.186-7.93-0.203-0.741-0.00688-1.48-0.0138-2.25-0.0208-2.38-0.0171-4.76-0.0235-7.14-0.026-1.21-0.00251-1.21-0.00251-2.45-0.00507-18.1-0.00225-33.6 2.55-50.5 9.22-3.5 1.34-5.94 2.04-9.75 2.04-0.33 0.99-0.66 1.98-1 3-1.99 1.02-3.99 2.01-6 3-2.55 1.71-5.04 3.49-7.54 5.28-2.46 1.72-2.46 1.72-4.87 3.11-25.8 15.9-41.7 45.2-49.6 73.6-0.33-0.66-0.66-1.32-1-2h-5v3l2 1c0.143 7.43 0.143 7.43-1 11h-2l0.0625 2.88c-0.0625 3.12-0.0625 3.12-1.06 5.12l2 1c-0.0355 0.725-0.0711 1.45-0.108 2.2-0.16 3.35-0.307 6.7-0.455 10.1-0.0561 1.14-0.112 2.28-0.17 3.45-0.288 6.77-0.141 13.2 0.694 20 0.0128 0.771 0.0256 1.54 0.0388 2.34l-2 2c0.303 2.34 0.639 4.67 1 7-0.33 1.32-0.66 2.64-1 4-2.97 0.33-5.94 0.66-9 1 2.36-2.36 3.78-2.49 7-3-4.03-0.183-6.48 0.0593-10 2h-3c0.33 1.65 0.66 3.3 1 5h-3c-0.934-3.01-1.04-3.87 0-7l-3.81 0.625c-3.59 0.588-3.94 0.541-7.19-1.62-0.341-3.83 0.122-7.27 1-11h-2c-0.33 0.99-0.66 1.98-1 3l-2-3h-2v-6h2l-0.938-2.69c-1.06-3.31-1.06-3.31-1.56-5.88-0.432-2.52-0.432-2.52-1.62-5.06-0.875-2.38-0.875-2.38 0.125-5.38l-2-2h2c-0.33-2.64-0.66-5.28-1-8h6l-0.254-2.31c-0.637-6.46-0.709-12.3 0.254-18.7h4v-2l-2-1h2v-2l-2-1c0.712-0.619 0.712-0.619 1.44-1.25 1.74-1.95 2.06-3.23 2.56-5.75 0.33-0.33 0.66-0.66 1-1-0.99-0.66-1.98-1.32-3-2l3-2c0.33-1.32 0.66-2.64 1-4 3.63 0.33 7.26 0.66 11 1v2h2c0.33-1.98 0.66-3.96 1-6h2c0.495-1.49 0.495-1.49 1-3l1.94-1.88c2.21-2.28 3.07-4.14 4.06-7.12h3l1-3h2c-0.33-1.32-0.66-2.64-1-4 0.99-0.33 1.98-0.66 3-1 1.21-2 1.21-2 2-4 1 2 2 4 3 6v-8c0.938-0.108 0.938-0.108 1.89-0.219 2.29-0.578 2.29-0.578 3.12-2.81 0.223-0.815 0.446-1.63 0.676-2.47 1.26-4.45 1.26-4.45 2.31-5.5 0.503-0.897 0.503-0.897 1.02-1.81 3.37-5.97 3.37-5.97 6.8-7.19h2.19c-0.278-1.89-0.278-1.89-0.562-3.81-0.445-3.01-0.436-4.19 0.562-7.19 1.14 0.0928 1.14 0.0928 2.31 0.188 2.68 0.0419 2.68 0.0419 4.5-1.44 1.56-1.95 1.56-1.95 1.19-5.75-0.66-0.66-1.32-1.32-2-2h2v-3h11c-1.98-0.495-1.98-0.495-4-1v-2c0.99-0.33 1.98-0.66 3-1-0.495-1.98-0.495-1.98-1-4 5.75 1.88 5.75 1.88 8 3v2l2.88-0.562c3.12-0.438 3.12-0.438 5.12 0.562v-2h5c-0.987-2.2-1.85-3.85-3.56-5.56-1.44-1.44-1.44-1.44-2.44-4.44 0.495-0.99 0.495-0.99 1-2h-2v2c-1.65-0.66-3.3-1.32-5-2 0.33-0.99 0.66-1.98 1-3 3.24-1.32 6.55-1.08 10-1 0.167-2.42 0.167-2.42 0-5-0.99-0.99-0.99-0.99-2-2 1.98 0.33 3.96 0.66 6 1v2c4.29 0.33 8.58 0.66 13 1 0.33-0.66 0.66-1.32 1-2v2h5c-0.99-1.48-0.99-1.48-2-3 2.64 0.33 5.28 0.66 8 1-0.33-0.99-0.66-1.98-1-3h2v-2h3v-2l-1.56 0.75c-3.9 0.4-6.18-1.68-9.44-3.75v-4c14.2-1.08 14.2-1.08 20.9-1 8.42 0.539 8.42 0.539 15.8-2.48 0.454-0.501 0.907-1 1.38-1.52 1.33-0.667 2.67-1.33 4-2 0.99 0.66 1.98 1.32 3 2-0.33 0.33-0.66 0.66-1 1 1.98 0.33 3.96 0.66 6 1v-2h2v-2c-0.99-0.495-0.99-0.495-2-1h2c-0.33-0.99-0.66-1.98-1-3z" fill="#8373F9"/>
<path transform="translate(1111,139)" d="m0 0h32v62h38c0.0206 4.1 0.0412 8.21 0.0625 12.4 0.0091 1.3 0.0182 2.59 0.0276 3.93 0.0025 1.01 5e-3 2.03 0.00757 3.07 0.00524 1.04 0.0105 2.08 0.0159 3.16-0.114 2.41-0.114 2.41-1.11 3.41h-37v115h-32v-115h-25c-1-1-1-1-1.11-3.41 0.00524-1.04 0.0105-2.08 0.0159-3.16 0.0025-1.01 5e-3 -2.03 0.00757-3.07 0.0091-1.3 0.0182-2.59 0.0276-3.93 0.0206-4.1 0.0412-8.21 0.0625-12.4h26v-62z" fill="#000102"/>
<path transform="translate(283,182)" d="m0 0c0.598 0.309 1.2 0.619 1.81 0.938 2.28 1.16 2.28 1.16 5.19 2.06 0.99 1.49 0.99 1.49 2 3 0.66-0.66 1.32-1.32 2-2 1.58 1.58 1.35 3.38 1.56 5.56 0.0838 0.826 0.168 1.65 0.254 2.5 0.0606 0.638 0.121 1.28 0.184 1.93 1.32 0.33 2.64 0.66 4 1v3c1.65-0.33 3.3-0.66 5-1-0.66 0.33-1.32 0.66-2 1v2c1.09-0.0619 2.19-0.124 3.31-0.188 3.69 0.188 3.69 0.188 5.62 1.56 1.06 1.62 1.06 1.62 1.06 3.62l2 2v1c1.32-0.33 2.64-0.66 4-1 1.6 3.51 2.22 6.14 2 10 0.99-0.33 1.98-0.66 3-1 0.292 1.31 0.583 2.62 0.875 3.94 0.183 0.815 0.366 1.63 0.555 2.47 0.375 1.7 0.735 3.41 1.08 5.12 0.162 0.794 0.325 1.59 0.492 2.41 0.144 0.731 0.289 1.46 0.438 2.21 0.472 2.07 0.472 2.07 2.56 3.85-0.242 2.16-0.242 2.16-0.875 4.62-0.306 1.23-0.306 1.23-0.617 2.48-0.168 0.626-0.335 1.25-0.508 1.9h-1c-0.0606 1.06-0.121 2.12-0.184 3.21-0.0844 1.39-0.169 2.78-0.254 4.16-0.0393 0.699-0.0786 1.4-0.119 2.12-0.33 5.28-0.33 5.28-1.44 7.51h4c-0.33 1.65-0.66 3.3-1 5-4.02 0.171-8.03 0.331-12 0.482-2.02 0.0781-4.04 0.164-6.06 0.25-6.53 0.241-13 0.352-19.6 0.107-1.1-0.0388-2.2-0.0775-3.33-0.117-4.13-0.996-5.55-2.24-7.99-5.72-0.71-3.29-0.698-6.5-0.672-9.86-0.0127-0.945-0.0255-1.89-0.0386-2.86-0.0363-3.01-0.039-6.02-0.0395-9.03-0.0216-3.02-0.05-6.05-0.0823-9.07-0.0178-1.88-0.0281-3.76-0.0302-5.64 0.403-4.09 0.403-4.09-1.14-7.54-2.59-0.0885-5.16-0.115-7.75-0.0977-0.775 0.00141-1.55 0.00283-2.35 0.00429-2.49 0.00562-4.97 0.0182-7.46 0.0309-1.68 0.00501-3.36 0.00958-5.04 0.0137-4.13 0.011-8.26 0.0283-12.4 0.0488 0.00666 0.555 0.0133 1.11 0.0202 1.68 0.0664 5.77 0.112 11.5 0.145 17.3 0.0151 2.16 0.0356 4.31 0.0615 6.47 0.0364 3.1 0.0534 6.2 0.0667 9.29 0.0155 0.964 0.031 1.93 0.0469 2.92 2.27e-4 0.901 4.53e-4 1.8 6.87e-4 2.73 0.00666 0.791 0.0133 1.58 0.0202 2.4-0.456 2.77-1.46 4.15-3.36 6.19-2.29 0.47-2.29 0.47-4.97 0.426l-2.98-0.0254c-1.03-0.029-2.05-0.058-3.11-0.0879-1-0.00967-2-0.0193-3.03-0.0293-6.35-0.0948-12.6-0.543-18.9-1.28-0.625-2.38-0.625-2.38-1-5l2-2c-1.32-0.66-2.64-1.32-4-2v-3c1.98-0.99 1.98-0.99 4-2l-1-5c-0.66 0.99-1.32 1.98-2 3v-3h-2v-3h4c1.32-3.3 2.64-6.6 4-10h6c-0.669-3.11-0.669-3.11-3.06-4.19-0.639-0.268-1.28-0.536-1.94-0.812 4.14-2.14 7.31-3.13 12-3 1.18-1.97 1.18-1.97 0.938-4.31 0.0694-2.98 0.831-4.99 2.06-7.69h2c0.33-0.66 0.66-1.32 1-2 3 2 3 2 4 4l2-1c-0.33-0.99-0.66-1.98-1-3 4.62-2.12 4.62-2.12 8-1v-2c-0.99-0.33-1.98-0.66-3-1 0.812-2.94 0.812-2.94 2-6 0.99-0.33 1.98-0.66 3-1v-3h3c0.33-0.66 0.66-1.32 1-2 2.25-0.0271 4.5-0.0464 6.75-0.0625 1.25-0.0116 2.51-0.0232 3.8-0.0352 2.78 0.0786 4.83 0.316 7.45 1.1 2.33 0.35 4.66 0.686 7 1 0.289-0.804 0.577-1.61 0.875-2.44 1.12-2.56 1.12-2.56 3.12-3.56 0.652-2.02 0.652-2.02 1-4h2c0.33-1.32 0.66-2.64 1-4v6c1.32-3.62 2-6.1 2-10z" fill="#8373FA"/>
<path transform="translate(272,104)" d="m0 0h2c0.33 0.66 0.66 1.32 1 2 0.99 0.33 1.98 0.66 3 1 0.66-0.66 1.32-1.32 2-2 0.436 0.519 0.871 1.04 1.32 1.57 2.76 3.23 5.41 6.2 8.68 8.93 3.15 2.62 5.61 5.45 8.25 8.56 2.37 2.63 4.95 4.76 7.75 6.94 0.144-1.07 0.289-2.15 0.438-3.25 0.401-2.68 0.878-5.15 1.56-7.75 3.42-0.0872 6.83-0.14 10.2-0.188 1.45-0.0377 1.45-0.0377 2.93-0.0762 1.4-0.0145 1.4-0.0145 2.83-0.0293 0.859-0.0157 1.72-0.0314 2.6-0.0476 3.05 0.436 4.32 1.04 6.38 3.34 0.438 3.08 0.438 3.08 0.355 6.83-0.00803 0.667-0.0161 1.33-0.0243 2.02-0.029 2.13-0.0851 4.27-0.144 6.4-0.0427 2.12-0.0797 4.24-0.111 6.36-0.0314 1.93-0.0783 3.87-0.126 5.8-0.0542 7.08-0.0542 7.08 3.18 13 0.949 0.846 1.9 1.69 2.88 2.56 1.03 1.18 2.05 2.36 3.06 3.56 3.77 4.38 7.87 8.4 12 12.4 1.34 1.31 2.63 2.67 3.91 4.04v2h3c0.944 1.76 1.89 3.52 2.83 5.27 1.22 2.03 1.22 2.03 4.17 3.73 0.188 3.62 0.188 3.62 0 7-1.49 0.495-1.49 0.495-3 1-0.686 1.32-1.35 2.66-2 4-3.53 4.84-6.67 7.28-12 10-4.83-3.16-8.41-6.41-12.1-10.8-3.41-3.94-7.18-7.53-10.9-11.2-1.67-1.67-3.33-3.33-5-5-0.813-0.802-1.63-1.6-2.46-2.43-7.48-7.39-7.48-7.39-10.7-11.3-2.6-3.13-5.5-5.68-8.65-8.25-1.9-1.76-3.51-3.53-5.18-5.5-5.24-6.07-11-11.6-16.7-17.3-2.24-2.21-4.47-4.42-6.7-6.64-0.504-0.496-1.01-0.992-1.53-1.5-2.25-2.23-4.31-4.46-6.25-6.97-1.72-2.46-1.72-2.46-4.84-3.21 0.33-0.66 0.66-1.32 1-2h6c1.01-3.62 1.5-7.28 2-11h2c-0.33-1.65-0.66-3.3-1-5h2c0.99 1.48 0.99 1.48 2 3v-6h-2v-4z" fill="#8777F9"/>
<path transform="translate(401,207)" d="m0 0c1.41 2.64 2.37 5.07 3 8h-2c0.163 0.53 0.326 1.06 0.494 1.61 0.623 2.95 0.618 5.68 0.604 8.69-0.00322 1.21-0.00645 2.41-0.00977 3.65-0.00838 1.25-0.0168 2.51-0.0254 3.8-0.00451 1.27-0.00902 2.54-0.0137 3.85-0.0118 3.13-0.0282 6.27-0.0488 9.4-0.99 0.495-0.99 0.495-2 1 1.98 0.99 3.96 1.98 6 3v5h-3c0.165 0.598 0.33 1.2 0.5 1.81 0.5 2.19 0.5 2.19 0.5 5.19-1.65-0.66-3.3-1.32-5-2v4c-1.11 0.289-2.23 0.577-3.38 0.875-3.63 0.817-3.63 0.817-5.62 3.12-0.99 0.557-1.98 1.11-3 1.69-3.69 2.85-3.92 4.9-5 9.31-0.99 0.33-1.98 0.66-3 1-0.487 2.01-0.97 4.03-1.39 6.05-0.826 2.65-2.2 3.66-4.61 4.95 0.33 0.66 0.66 1.32 1 2-2.48 0.495-2.48 0.495-5 1v5c-2.31 0.99-4.62 1.98-7 3v3c-0.99 0.33-1.98 0.66-3 1v3h-2v5h-6c0.66 0.66 1.32 1.32 2 2-3.47 0.495-3.47 0.495-7 1v2c-0.99 0.33-1.98 0.66-3 1-0.33 0.99-0.66 1.98-1 3h2c0.33 1.65 0.66 3.3 1 5-10.6-0.892-10.6-0.892-15-3-0.875-2.12-0.875-2.12-1-4h4v-2h2v-2c-5.06-0.297-7.88 0.0209-12 3-0.99 0.66-1.98 1.32-3 2-0.73 2.56-0.73 2.56-1 5-1.49-0.495-1.49-0.495-3-1v3c0.99-0.33 1.98-0.66 3-1-0.33 2.31-0.66 4.62-1 7-3.18 1.06-4.79 0.953-8.06 0.562-3.46-0.417-3.46-0.417-6.94-0.562-0.33 0.99-0.66 1.98-1 3-1.18 1.67-1.18 1.67-3 3-2.85 0.363-2.85 0.363-6.06 0.312-1.06-0.00387-2.13-0.00773-3.22-0.0117-2.71-0.301-2.71-0.301-4.71-2.3-0.681-0.165-1.36-0.33-2.06-0.5-0.639-0.165-1.28-0.33-1.94-0.5-0.33-0.66-0.66-1.32-1-2-0.99-0.33-1.98-0.66-3-1v-3h-3v-2h-7c0.66-0.33 1.32-0.66 2-1v-2c-7.54 0.718-14.7 2.16-22 4v-2c-2.97-0.66-5.94-1.32-9-2 0.495-1.49 0.495-1.49 1-3-1.24-0.144-2.48-0.289-3.75-0.438-4.59-0.535-8.88-1.71-13.3-3-0.857-0.246-1.71-0.492-2.6-0.746-2.34-0.816-2.34-0.816-5.34-2.82 0.33-0.99 0.66-1.98 1-3 1.18 0.268 2.35 0.536 3.56 0.812 39.5 8.77 77.8 6.98 113-14.7 29.4-18.8 48.2-45.9 57.7-79.1h2v2c1.98 0.33 3.96 0.66 6 1-0.33-1.32-0.66-2.64-1-4 0.66-0.33 1.32-0.66 2-1 0.431-2.55 0.431-2.55 0.562-5.5 0.341-5.4 0.341-5.4 1.44-6.5z" fill="#8574F7"/>
<path transform="translate(1386,187)" d="m0 0h23c0.33 3.63 0.66 7.26 1 11 5.61 1.9 10.5 2.28 16.4 2.23 1.38 4.38e-4 1.38 4.38e-4 2.78 8.85e-4 3.01-0.00139 6.03-0.0169 9.04-0.0326 2.1-0.00373 4.19-0.00658 6.29-0.00858 5.51-0.00762 11-0.0272 16.5-0.0494 5.62-0.0205 11.2-0.0296 16.9-0.0397 11-0.0214 22-0.0555 33.1-0.0977v3h-2c-0.394 0.83-0.394 0.83-0.797 1.68-2.4 4.64-5.37 8.94-8.2 13.3-0.568 0.897-1.14 1.79-1.72 2.72-0.525 0.815-1.05 1.63-1.59 2.47-0.706 1.1-0.706 1.1-1.43 2.23-0.625 0.783-0.625 0.783-1.26 1.58h-2c-0.227 0.681-0.454 1.36-0.688 2.06-1.67 3.73-3.87 6.66-6.31 9.94-1.98-0.66-3.96-1.32-6-2 0.99-0.99 1.98-1.98 3-3-2.64-0.33-5.28-0.66-8-1-0.0825-0.619-0.165-1.24-0.25-1.88-0.569-2.27-0.569-2.27-2.62-3.44-2.27-0.967-2.27-0.967-5.12 0.312-3.26 1.09-3.86 0.856-7 0-1.55-0.101-3.11-0.155-4.67-0.174-0.922-0.0135-1.84-0.027-2.79-0.0409-1.49-0.0157-1.49-0.0157-3.01-0.0316-2.12-0.033-4.24-0.0662-6.36-0.0996-3.33-0.0472-6.65-0.0916-9.98-0.131-3.22-0.0401-6.44-0.0916-9.66-0.144-0.975-0.00841-1.95-0.0168-2.96-0.0255-19.6-0.344-19.6-0.344-26.1-5.77-6.51-6.82-8.44-12.7-8.45-22-0.029-0.992-0.058-1.98-0.0879-3.01-0.162-7.18-0.162-7.18 1.03-9.56z" fill="#6A55F9"/>
<path transform="translate(152,270)" d="m0 0c1.32 2.31 2.64 4.62 4 7 0.99-0.33 1.98-0.66 3-1 1.72 1.11 1.72 1.11 3.5 2.75 0.588 0.531 1.18 1.06 1.78 1.61 1.08 1.03 2.14 2.07 3.2 3.12 4.48 4.46 9.09 8.29 14.5 11.5v2c1.04 0.379 1.04 0.379 2.1 0.766 3.29 1.4 6.21 3.14 9.27 4.98 7.24 4.26 14.8 7.34 22.6 10.2v4c5.45 2.24 10.1 3.48 16 4v2c0.99-0.33 1.98-0.66 3-1 2.69 0.938 2.69 0.938 5 2v2c2.97 0.66 5.94 1.32 9 2-0.33 0.99-0.66 1.98-1 3 0.99-0.66 1.98-1.32 3-2 6.32-1.85 12.5-2.21 19-2v2c1.65 0.33 3.3 0.66 5 1v2h3c-0.33 1.32-0.66 2.64-1 4-2.97 0.495-2.97 0.495-6 1v3c-1.6 0.0812-3.21 0.139-4.81 0.188-1.34 0.0522-1.34 0.0522-2.71 0.105-2.94-0.347-3.68-1.02-5.48-3.29-2-2.48-2.87-2.97-6.06-3.75-2.87-0.501-2.87-0.501-4.94 0.75-1.73-0.278-1.73-0.278-3.5-0.562-1.16-0.144-2.31-0.289-3.5-0.438-0.66 0.66-1.32 1.32-2 2-2.74 0.145-5.38 0.187-8.12 0.125-0.754-0.00902-1.51-0.018-2.29-0.0273-1.86-0.0236-3.73-0.0595-5.59-0.0977-0.33 0.66-0.66 1.32-1 2-4.29-0.66-8.58-1.32-13-2-0.495 1.49-0.495 1.49-1 3-0.99-0.33-1.98-0.66-3-1v-4h-6v3c-2.97 0.495-2.97 0.495-6 1v-4l-2-1v-4c-0.887-0.144-1.77-0.289-2.69-0.438-1.64-0.278-1.64-0.278-3.31-0.562-0.928-0.144-1.86-0.289-2.81-0.438-0.722-0.186-1.44-0.371-2.19-0.562-0.33-0.66-0.66-1.32-1-2h3v-2c-1.45-0.186-1.45-0.186-2.94-0.375-1.01-0.206-2.02-0.413-3.06-0.625-0.33-0.66-0.66-1.32-1-2-2.02-0.652-2.02-0.652-4-1 0.66-1.65 1.32-3.3 2-5-1.58-0.223-3.17-0.428-4.75-0.625-0.882-0.116-1.76-0.232-2.67-0.352-2.81-0.0255-4.21 0.528-6.58 1.98-0.99-0.66-1.98-1.32-3-2v-3h2v-2h-2v-3c0.99-0.495 0.99-0.495 2-1 0.407-2.32 0.744-4.66 1-7-1.32-0.33-2.64-0.66-4-1 0.165-0.949 0.33-1.9 0.5-2.88 0.553-2.93 0.553-2.93 0.5-5.12-0.495-0.495-0.99-0.99-1.5-1.5-0.495-0.495-0.99-0.99-1.5-1.5v-2h-3v-4c-0.99 1.49-0.99 1.49-2 3-2.07-5.36-2.07-5.36-1.75-8.31 1.45-3.26 3.27-2.69 6.75-2.69z" fill="#8777F8"/>
<path transform="translate(185,46)" d="m0 0h2v5c0.99 0.495 0.99 0.495 2 1 1.62 1.38 1.62 1.38 3 3v3h-5v2h-10v-3c-0.619-0.144-1.24-0.289-1.88-0.438-2.12-0.562-2.12-0.562-4.12-1.56v3c0.99 0.495 0.99 0.495 2 1-1.32 0.33-2.64 0.66-4 1v2c1.32-0.33 2.64-0.66 4-1v2c-4.02 0.696-7.08 1.17-11 0 0.119 0.603 0.237 1.21 0.359 1.83 1.05 6.52 1.05 6.52-0.984 9.73-2.38 1.44-2.38 1.44-7.38 1.44v10c-0.743 0.206-1.49 0.412-2.25 0.625-3.59 1.8-4.83 3.9-6.75 7.38v3c-0.812 1.87-0.812 1.87-2 4-0.454 0.908-0.908 1.82-1.38 2.75-0.536 0.743-1.07 1.48-1.62 2.25h-4v8c-1.32-0.33-2.64-0.66-4-1v-3c-1.58 1.25-1.58 1.25-3 3v4c-2.38 2.75-2.38 2.75-5 5h-2c-0.0928 1.08-0.0928 1.08-0.188 2.19-1.07 3.7-2.92 5.34-5.81 7.81h-2c-0.33 1.98-0.66 3.96-1 6h-2v-2c-2.97-0.33-5.94-0.66-9-1l-1-5-0.625-2.69c-0.375-2.31-0.375-2.31 0.625-4.31-0.186-0.99-0.371-1.98-0.562-3l-0.438-3 2-2v3l2 1v4c1.19-3.56 1.1-6.44 1.06-10.2l-0.0273-3.86c-0.0116-0.976-0.0232-1.95-0.0352-2.96 1.48-0.495 1.48-0.495 3-1 1.71-3 1.71-3 3-6h2c0.33-1.32 0.66-2.64 1-4h2c0.33-0.99 0.66-1.98 1-3h2c0.33 0.99 0.66 1.98 1 3-0.66 0.99-1.32 1.98-2 3l-2-1c0.227 0.536 0.454 1.07 0.688 1.62 0.452 3.44-1.02 5.43-2.69 8.38 0.763-0.495 1.53-0.99 2.31-1.5 2.69-1.5 2.69-1.5 5.69-1.5 0.33 0.66 0.66 1.32 1 2 0.289-0.722 0.578-1.44 0.875-2.19 1.04-2.6 2.08-5.21 3.12-7.81l-2-2v-2c-1.96-1.64-1.96-1.64-4-3 0.351-0.598 0.701-1.2 1.06-1.81 1.27-2.3 1.27-2.3-0.0625-5.19 2.31-1.56 2.31-1.56 5-3 1.49 0.495 1.49 0.495 3 1-0.33-1.32-0.66-2.64-1-4 1.32-0.33 2.64-0.66 4-1v-3c2.7-3.44 4.24-4.84 8.56-5.75 1.7-0.124 1.7-0.124 3.44-0.25 3.05-0.576 3.75-0.748 6-3 0.66 0.33 1.32 0.66 2 1-0.495-1.48-0.495-1.48-1-3 0.902-2.7 1.54-3.75 4.06-5.12 0.639-0.289 1.28-0.578 1.94-0.875 0.33-0.66 0.66-1.32 1-2 0.536 0.144 1.07 0.289 1.62 0.438 5.7 1.46 5.7 1.46 11.4 0.562 0.33-0.99 0.66-1.98 1-3 1.88-0.563 1.88-0.563 4-1 0.99-0.66 1.98-1.32 3-2 2.69-0.125 2.69-0.125 5 0v-2z" fill="#8674F9"/>
<path transform="translate(1320,306)" d="m0 0c2.23 2.23 3.34 4.34 4.81 7.12 2.24 4.21 4.62 8.16 7.4 12 0.785 1.85 0.785 1.85 0.918 4.32-1.82 4.06-5.25 4.98-9.2 6.66-0.739 0.334-1.48 0.668-2.24 1.01-16 7.15-35.2 11.3-52.7 6.86v-2c3.32-1.42 6.44-2.39 10-3v-7c-0.66-0.33-1.32-0.66-2-1 1.65-0.33 3.3-0.66 5-1-0.106-2.45-0.106-2.45-1-5-2.46-1.23-2.46-1.23-5-2-0.33-0.66-0.66-1.32-1-2h-3v-3l-4-1c0.66-0.66 1.32-1.32 2-2 1.93 0.456 3.87 0.922 5.78 1.46 14.4 3.52 28.7-1.07 41.2-8.19 1.96-1.11 1.96-1.11 3.05-2.27z" fill="#6A55F7"/>
<path transform="translate(207,140)" d="m0 0c2.49 1.25 3.47 2.7 5 5v2h3v2c2.47 0.495 2.47 0.495 5 1-0.99 0.33-1.98 0.66-3 1v2c0.66 0.33 1.32 0.66 2 1-0.99 0.33-1.98 0.66-3 1-2.28 3.24-2.18 6.12-2 10h-2c-1.46 2.65-2 3.89-2 7-0.897 0.186-0.897 0.186-1.81 0.375-2.45 0.58-2.45 0.58-5.19 2.62h-3v3h-2v2c0.99 0.495 0.99 0.495 2 1-2.47 0.495-2.47 0.495-5 1-0.33 1.32-0.66 2.64-1 4-1.32-0.33-2.64-0.66-4-1-0.248 0.949-0.495 1.9-0.75 2.88-1.44 3.6-1.9 3.65-5.25 5.12-2.23 2.53-2.23 2.53-4 5-1.49-0.495-1.49-0.495-3-1 1.49-0.495 1.49-0.495 3-1v-8h-3c-0.33 0.66-0.66 1.32-1 2h-2c-0.33 0.99-0.66 1.98-1 3-1.49 0.495-1.49 0.495-3 1-0.33 0.66-0.66 1.32-1 2h-6v2h-3c1.32 0.66 2.64 1.32 4 2-2.47 0.495-2.47 0.495-5 1-0.66-1.32-1.32-2.64-2-4h-2c1.43-4.71 4.17-7.54 7.64-10.9 0.836-0.823 0.836-0.823 1.69-1.66 1.78-1.75 3.57-3.49 5.36-5.23 10-9.64 10-9.64 18.9-20.4 2.18-2.78 4.83-4.91 7.54-7.16 2.46-2.17 4.52-4.57 6.6-7.12 1.36-1.62 2.81-3.1 4.32-4.58z" fill="#8775FB"/>
<path transform="translate(1313,199)" d="m0 0c1.31 2.12 1.31 2.12 2 4-1.26-0.217-1.26-0.217-2.55-0.438-1.64-0.278-1.64-0.278-3.32-0.562-1.09-0.186-2.18-0.371-3.3-0.562-2.67-0.489-2.67-0.489-4.82-0.438-0.167 2.42-0.167 2.42 0 5 0.66 0.66 1.32 1.32 2 2 0.125 3.12 0.125 3.12 0 6-1.13 0.289-2.27 0.577-3.44 0.875-1.18 0.371-2.35 0.743-3.56 1.12-0.33 0.66-0.66 1.32-1 2 0.99 0.33 1.98 0.66 3 1v2c-2.9 0.966-4.48 1.07-7.46 0.957-12.6-0.347-25.4-0.488-35.3 8.73-0.392 0.433-0.784 0.866-1.19 1.31-0.99-1.32-1.98-2.64-3-4 0.619-0.0825 1.24-0.165 1.88-0.25 2.3-0.55 2.3-0.55 3.25-2.75 0.433-0.99 0.433-0.99 0.875-2 0.66-0.33 1.32-0.66 2-1-0.516-0.412-1.03-0.825-1.56-1.25-1.44-1.75-1.44-1.75-1.34-3.75 0.906-2 0.906-2 3.19-3.05 0.917-0.232 1.83-0.464 2.78-0.703 0.919-0.242 1.84-0.485 2.79-0.734 0.71-0.17 1.42-0.34 2.15-0.516v-4c3.63-0.33 7.26-0.66 11-1v-2.94-4.06c-6.27-0.348-12.3 0.158-18 3-1.32 2.01-1.32 2.01-2 4-2.64-0.33-5.28-0.66-8-1v-3c17.2-9.18 45-13.2 63-4z" fill="#6A55F7"/>
<path transform="translate(1386,187)" d="m0 0h23c0.33 3.63 0.66 7.26 1 11 1.32 0.66 2.64 1.32 4 2 0.702 1.65 1.37 3.32 2 5 1.48 0.99 1.48 0.99 3 2v4c0.66 0.33 1.32 0.66 2 1-1.81 0.0269-3.62 0.0463-5.44 0.0625-1.01 0.0116-2.02 0.0232-3.06 0.0352-2.5-0.0977-2.5-0.0977-3.5-1.1-0.33 1.32-0.66 2.64-1 4 1.32 0.66 2.64 1.32 4 2v2c1.32-0.33 2.64-0.66 4-1v4c-4.3 3.31-8.04 4.07-13.4 3.88-7.29-1.76-11.3-6.09-15.3-12.3-2.23-4.56-2.2-9.06-2.21-14.1-0.029-0.992-0.058-1.98-0.0879-3.01-0.162-7.18-0.162-7.18 1.03-9.56z" fill="#7259FA"/>
<path transform="translate(1434,316)" d="m0 0h76c-0.33 0.66-0.66 1.32-1 2v23h-70v-1c0.908-0.124 1.82-0.248 2.75-0.375 3.11-0.433 3.11-0.433 5.12-1.62 2.55-1.21 4.72-1.48 7.52-1.79 1.02-0.12 2.04-0.24 3.09-0.363 2.15-0.238 4.3-0.475 6.45-0.711 1.52-0.18 1.52-0.18 3.08-0.363 0.933-0.102 1.87-0.205 2.83-0.311 0.713-0.155 1.43-0.311 2.16-0.471 0.33-0.66 0.66-1.32 1-2-0.99-0.33-1.98-0.66-3-1 5.44-0.99 5.44-0.99 11-2v-2c3.75-1.12 3.75-1.12 6 0v3h3c0.33-0.66 0.66-1.32 1-2v2h2c-0.247-1.67-0.247-1.67-0.5-3.38-0.5-3.62-0.5-3.62-0.5-5.62-8.02-1.13-15.9-1.1-24-1v-2c-11.2-0.33-22.4-0.66-34-1v-1z" fill="#6652EE"/>
<path transform="translate(127,151)" d="m0 0c0.99 0.33 1.98 0.66 3 1-0.311 2.71-0.623 5.42-0.938 8.12-0.087 0.761-0.174 1.52-0.264 2.3-0.367 3.16-0.738 6.26-1.35 9.38-2.63 18.8-0.784 39.3 5.55 57.2 0.248 0.713 0.495 1.43 0.75 2.16 0.71 1.96 1.47 3.9 2.25 5.84 0.37 0.936 0.74 1.87 1.12 2.84 4.53 11.2 10.2 23.6 18.9 32.2 1.19 2.69 1.19 2.69 2 5h-3c-3-4.22-3-4.22-3-7-2.97 0.99-2.97 0.99-6 2 0.33 2.31 0.66 4.62 1 7 0.99-0.495 0.99-0.495 2-1v4h3c0.124 0.928 0.124 0.928 0.25 1.88 0.563 2.31 0.563 2.31 2.81 3.38 0.959 0.371 0.959 0.371 1.94 0.75-0.99 0.66-1.98 1.32-3 2-0.66-0.66-1.32-1.32-2-2-1.01-0.309-2.02-0.619-3.06-0.938-0.969-0.351-1.94-0.701-2.94-1.06-0.33-0.99-0.66-1.98-1-3-0.66-0.33-1.32-0.66-2-1-0.594-2.65-0.742-5.29-1-8-3.05-0.981-4.95-0.981-8 0 0.99-0.495 0.99-0.495 2-1-0.144-0.615-0.289-1.23-0.438-1.86-0.186-0.808-0.371-1.62-0.562-2.45-0.186-0.801-0.371-1.6-0.562-2.43-0.438-2.26-0.438-2.26-0.438-5.26-0.501-0.46-1-0.92-1.52-1.39-1.48-1.61-1.48-1.61-1.55-3.87 0.128-0.801 0.255-1.6 0.387-2.43 0.12-0.808 0.24-1.62 0.363-2.45 0.107-0.615 0.214-1.23 0.324-1.86-0.99-0.33-1.98-0.66-3-1-0.0606-0.69-0.121-1.38-0.184-2.09-0.533-5.98-1.13-11.9-1.82-17.9-0.66 1.32-1.32 2.64-2 4-0.0977-6.15-0.0977-6.15 0-8 0.495-0.495 0.495-0.495 1-1-0.66-0.66-1.32-1.32-2-2-0.714-1.98-1.39-3.98-2-6 1.48-0.495 1.48-0.495 3-1-0.149-0.71-0.299-1.42-0.453-2.15-1.52-7.95-1.6-15.3-1.11-23.3 0.129-2.28 0.253-4.56 0.371-6.84 0.0599-0.992 0.12-1.98 0.181-3.01 0.00928-2.46-0.364-4.3-0.99-6.65 0.438-2.75 0.438-2.75 1-5h2c-0.33-1.65-0.66-3.3-1-5h1c0.08-3.52 0.0401-6.62-1-10 0.66-0.33 1.32-0.66 2-1z" fill="#8776FB"/>
<path transform="translate(330,128)" d="m0 0c0.99 0.66 1.98 1.32 3 2 0.325 2.32 0.325 2.32 0.258 5.2-0.0213 1.57-0.0213 1.57-0.043 3.17-0.0445 1.64-0.0445 1.64-0.0898 3.32-0.994 11.7-0.994 11.7 3.19 21.9 0.887 0.784 1.77 1.57 2.69 2.38 4 4.54 4 4.54 4 8-3-1-3-1-4.31-3-2.3-2.73-4.23-2.69-7.69-3-0.33 1.65-0.66 3.3-1 5-0.33-1.32-0.66-2.64-1-4h-4c-0.103-0.639-0.206-1.28-0.312-1.94-0.227-0.681-0.454-1.36-0.688-2.06-1.49-0.495-1.49-0.495-3-1-0.124-0.743-0.248-1.49-0.375-2.25-0.481-2.7-0.481-2.7-1.69-4.69-1.25-2.75-1.07-5.08-0.938-8.06h-2v-5c-0.619-0.0412-1.24-0.0825-1.88-0.125-1.05-0.433-1.05-0.433-2.12-0.875-0.693-1.99-1.36-3.99-2-6-1.99-1.87-1.99-1.87-4-3 3.2 0 5.09 0.743 8 2 0.701-0.66 1.4-1.32 2.12-2 3.33-2.32 4.9-2.53 8.88-2 0.66 0.66 1.32 1.32 2 2v-3h2c0.33-0.99 0.66-1.98 1-3z" fill="#8775FB"/>
<path transform="translate(283,212)" d="m0 0c2.6 3.9 2.15 7.47 2 12h3v10h2c0.0823 3.04-0.0239 5.07-1 8-0.068 1.73-0.085 3.46-0.0625 5.19 0.0135 1.35 0.0135 1.35 0.0273 2.73 0.0116 0.687 0.0232 1.37 0.0352 2.08 1.32 0.33 2.64 0.66 4 1 0.33 2.97 0.66 5.94 1 9-0.99 0.495-0.99 0.495-2 1v4c1.65 0.33 3.3 0.66 5 1v1c-2.06 0.136-4.12 0.232-6.19 0.312-1.15 0.058-2.3 0.116-3.48 0.176-4.47-0.655-5.62-1.9-8.33-5.49-0.709-3.25-0.654-6.41-0.594-9.72-4.03e-5 -0.935-8.06e-5 -1.87-1.22e-4 -2.83 0.00535-1.97 0.0229-3.95 0.0519-5.92 0.0419-3.02 0.0411-6.03 0.0342-9.05 0.0105-1.92 0.0234-3.84 0.0391-5.76 2.01e-4 -0.899 4.03e-4 -1.8 6.1e-4 -2.72 0.092-4.88 0.463-7.95 3.47-12 0.696-2.19 0.696-2.19 1-4z" fill="#8775F9"/>
<path transform="translate(310,41)" d="m0 0v2h3c-0.33 1.65-0.66 3.3-1 5 2.97 0.495 2.97 0.495 6 1 0.33-0.66 0.66-1.32 1-2 4.45 0.99 4.45 0.99 9 2v2c-1.29 0.389-2.58 0.761-3.88 1.12-0.719 0.209-1.44 0.418-2.18 0.633-0.642 0.0799-1.28 0.16-1.95 0.242-0.66-0.66-1.32-1.32-2-2h-4v3h-7c1.16 2.54 1.16 2.54 3 5 1.66 0.373 3.33 0.707 5 1 1.81 2.06 1.81 2.06 3 4-5.03-0.331-9.23-0.889-13.8-3.1-5.18-2.14-10.8-3.42-16.2-4.9 1.75-5.75 1.75-5.75 4-8 1.01-0.33 2.02-0.66 3.06-1 3.06-0.658 3.06-0.658 3.94-3h2v-2c3.2-1.07 5.66-1.07 9-1z" fill="#8674F9"/>
<path transform="translate(908,202)" d="m0 0h9v1h-6c9.22e-4 0.662 0.00184 1.32 0.00279 2.01 0.0221 16.1 0.0386 32.3 0.049 48.4 0.00515 7.8 0.0122 15.6 0.0236 23.4 0.00999 6.8 0.0164 13.6 0.0186 20.4 0.0013 3.6 0.00434 7.2 0.0116 10.8 0.0081 4.02 0.00826 8.05 0.0078 12.1 0.0036 1.18 0.00719 2.37 0.0109 3.59-0.00772 6.21-0.302 12.2-1.12 18.4h-2v-140z" fill="#020305"/>
<path transform="translate(308,120)" d="m0 0c3.42-0.0872 6.83-0.14 10.2-0.188 1.45-0.0377 1.45-0.0377 2.93-0.0762 1.4-0.0145 1.4-0.0145 2.83-0.0293 0.859-0.0157 1.72-0.0314 2.6-0.0476 2.94 0.421 4.29 1.24 6.38 3.34 0.25 3.69 0.25 3.69 0 7-0.99-0.33-1.98-0.66-3-1-0.99 1.98-1.98 3.96-3 6-0.66-0.33-1.32-0.66-2-1v-2c-4.31 1.08-7.64 2.04-11 5-5.43-1.89-5.43-1.89-6.91-4.77-1.37-4.76-0.854-7.54 0.914-12.2z" fill="#8273F1"/>
<path transform="translate(402,167)" d="m0 0h1v7c0.99 0.33 1.98 0.66 3 1 2.35 3.52 2.38 5.51 2.62 9.69 0.0748 1.18 0.15 2.36 0.227 3.57 0.049 0.904 0.098 1.81 0.148 2.74h-2c-0.33 1.65-0.66 3.3-1 5-0.99 0.33-1.98 0.66-3 1 0.33 2.31 0.66 4.62 1 7 0.66-0.99 1.32-1.98 2-3v4c0.66 0.33 1.32 0.66 2 1h-2c-0.692 1.85-0.692 1.85-1 4 0.66 0.99 1.32 1.98 2 3-0.375 3.69-0.375 3.69-1 7-1.49 0.495-1.49 0.495-3 1-0.33-1.98-0.66-3.96-1-6h2c-0.309-0.557-0.619-1.11-0.938-1.69-1.06-2.31-1.06-2.31-1.56-5-0.248-1.14-0.248-1.14-0.5-2.31-0.66-0.33-1.32-0.66-2-1 0.0651-1.92 0.13-3.84 0.195-5.76-0.0891-2.32-0.0891-2.32-1.19-4.63-1.17-3.04-1.24-5.36-1.19-8.61 0.00967-1.52 0.00967-1.52 0.0195-3.06 0.157-2.74 0.554-5.26 1.17-7.94 0.99 0.33 1.98 0.66 3 1-0.33 0.33-0.66 0.66-1 1h1c0.33-3.3 0.66-6.6 1-10z" fill="#8675F9"/>
<path transform="translate(1320,306)" d="m0 0c2.23 2.23 3.34 4.34 4.81 7.12 1.89 3.55 3.85 6.93 6.12 10.2 1.74 2.7 2.08 3.29 1.88 6.62-0.268 0.66-0.536 1.32-0.812 2-4.95 0.495-4.95 0.495-10 1v-7c-2.31-0.33-4.62-0.66-7-1-0.33 0.66-0.66 1.32-1 2h-5v-3c1.98-0.33 3.96-0.66 6-1-2.31-0.66-4.62-1.32-7-2 1.69-2.06 1.69-2.06 4-4 2.75 0.25 2.75 0.25 5 1v-2c-0.99-0.33-1.98-0.66-3-1-0.33-0.99-0.66-1.98-1-3 2.26-2.34 4.28-4.19 7-6z" fill="#6F57F5"/>
<path transform="translate(1386,187)" d="m0 0h23c0 11.2 0 11.2-1 15h-2v-2h-2c-0.33 0.99-0.66 1.98-1 3-7.75-0.875-7.75-0.875-10-2v-7c-1.98-0.66-3.96-1.32-6-2v-2c-0.66-0.33-1.32-0.66-2-1 0.33-0.66 0.66-1.32 1-2z" fill="#6954F6"/>
<path transform="translate(331,315)" d="m0 0c2.69 0.875 2.69 0.875 5 2v2h-2v2c-0.99 0.33-1.98 0.66-3 1 2.14 2.14 3.13 2.43 6 3v4c0.66 0.33 1.32 0.66 2 1-1.07 0.289-2.14 0.577-3.25 0.875-3.54 0.937-3.54 0.937-5.81 2.19-2.64 1.28-5.02 1.69-7.94 1.94-0.99-0.66-1.98-1.32-3-2v-4c-0.99 0.33-1.98 0.66-3 1-0.33-0.66-0.66-1.32-1-2l3-3v2h2c-0.0619-1.14-0.0619-1.14-0.125-2.31 0.125-2.69 0.125-2.69 2.12-5.69 1.98-0.717 3.98-1.38 6-2 0.99-0.66 1.98-1.32 3-2z" fill="#8775F9"/>
<path transform="translate(270,327)" d="m0 0v2c2.48 0.495 2.48 0.495 5 1v2h3c-0.33 1.32-0.66 2.64-1 4-1.98 0.33-3.96 0.66-6 1v3c-1.6 0.0812-3.21 0.139-4.81 0.188-1.34 0.0522-1.34 0.0522-2.71 0.105-2.94-0.347-3.68-1.02-5.48-3.29-2.62-3.24-4.92-3.55-9-4 0-2 0-2 2-4 6.28-1.92 12.5-2.21 19-2z" fill="#8877FA"/>
<path transform="translate(129,138)" d="m0 0c2.47 0.99 2.47 0.99 5 2-0.596 4.87-1.57 9.33-3 14-0.33-0.66-0.66-1.32-1-2h-5v3c0.66 0.33 1.32 0.66 2 1 0.143 7.43 0.143 7.43-1 11h-2c0.0619 0.928 0.124 1.86 0.188 2.81-0.188 3.19-0.188 3.19-3.19 6.19v-9c-0.99 0.33-1.98 0.66-3 1-0.123-4.44 0.603-7.81 2-12h2v-3h2c0.33-1.32 0.66-2.64 1-4h-2v-3h2c0.33-0.66 0.66-1.32 1-2h1c0.66-1.98 1.32-3.96 2-6z" fill="#8674F9"/>
<path transform="translate(1341,248)" d="m0 0c4.03 0.553 8.02 1.16 12 2 0.103 0.619 0.206 1.24 0.312 1.88 0.563 2.49 0.563 2.49 3.69 4.12-6.64 4.33-15 8-23 8 0.66-1.32 1.32-2.64 2-4-0.33-0.33-0.66-0.66-1-1-0.0408-2-0.0425-4 0-6 0.619-0.0825 1.24-0.165 1.88-0.25 2.31-0.563 2.31-0.563 3.38-2.81 0.247-0.639 0.495-1.28 0.75-1.94z" fill="#6B56FA"/>
<path transform="translate(83,145)" d="m0 0c0.99 0.33 1.98 0.66 3 1 0.33 1.98 0.66 3.96 1 6 0.33-1.65 0.66-3.3 1-5h1c0.0735 0.957 0.0735 0.957 0.148 1.93 0.0748 0.826 0.15 1.65 0.227 2.5 0.0696 0.824 0.139 1.65 0.211 2.5 0.137 0.682 0.273 1.36 0.414 2.07 0.66 0.33 1.32 0.66 2 1v5h-5c0.66-0.33 1.32-0.66 2-1l-2-2c-2.93 1.47-3.58 3.04-5 6-0.393 2.27-0.621 4.51-0.789 6.82-0.208 2.15-0.681 4.09-1.21 6.18-0.0379 1.67-0.0463 3.33 0 5h-2c-3.45-10.3-0.338-23.4 1-34h2c0.66-1.32 1.32-2.64 2-4z" fill="#8777FA"/>
<path transform="translate(241,174)" d="m0 0c0.33 0.66 0.66 1.32 1 2 0.66 0.33 1.32 0.66 2 1h-4v2c2.64 0.33 5.28 0.66 8 1 0.33 2.31 0.66 4.62 1 7-0.566 0.182-1.13 0.364-1.71 0.551-0.733 0.251-1.47 0.503-2.22 0.762-1.1 0.365-1.1 0.365-2.21 0.738-2.21 0.862-2.21 0.862-2.85 3.95-2.88 1.31-2.88 1.31-6 2-0.99-0.66-1.98-1.32-3-2v-2l-2-2c0.99-1.98 1.98-3.96 3-6h5c0.103-1.11 0.206-2.23 0.312-3.38 0.227-1.2 0.454-2.39 0.688-3.62 0.99-0.66 1.98-1.32 3-2z" fill="#8877FA"/>
<path transform="translate(545,250)" d="m0 0c2 2 2 2 2.2 5.66-0.012 1.61-0.0354 3.22-0.0673 4.83-0.00946 0.878-0.0189 1.76-0.0287 2.66-0.0338 2.91-0.0819 5.82-0.13 8.73-0.0262 2.01-0.0514 4.03-0.0758 6.04-0.0667 5.31-0.146 10.6-0.227 15.9-0.0808 5.42-0.15 10.8-0.221 16.2-0.14 10.6-0.292 21.3-0.453 31.9-0.66-0.33-1.32-0.66-2-1-0.0231-11.7-0.0409-23.4-0.0518-35.2-0.00523-5.44-0.0123-10.9-0.0236-16.3-0.0108-5.25-0.0168-10.5-0.0194-15.7-0.00185-2.01-0.00548-4.01-0.0109-6.02-0.00721-2.8-0.00826-5.6-0.0078-8.4-0.0036-0.838-0.00719-1.68-0.0109-2.54 0.0104-5.72 0.0104-5.72 1.12-6.84z" fill="#010204"/>
<path transform="translate(255,120)" d="m0 0c0.268 0.784 0.536 1.57 0.812 2.38 1.04 2.91 1.04 2.91 4.19 4.62-0.33 0.99-0.66 1.98-1 3h-2c-0.33 0.99-0.66 1.98-1 3-1.95 1.84-4.01 3.49-6.09 5.18-1.96 1.87-2.75 3.41-3.91 5.82-1.88 1.85-3.91 3.37-6 5v-6h4c-0.33-1.65-0.66-3.3-1-5 0.969-0.536 1.94-1.07 2.94-1.62 3.34-2.1 3.34-2.1 3.94-5.62 0.0412-0.907 0.0825-1.81 0.125-2.75h-5c0.33-1.98 0.66-3.96 1-6 5.62-2 5.62-2 9-2z" fill="#8373FA"/>
<path transform="translate(242,200)" d="m0 0h2v3c0.66 0.33 1.32 0.66 2 1h-2c-0.33 0.66-0.66 1.32-1 2v-2h-2c-0.33 1.98-0.66 3.96-1 6 0.66 0.33 1.32 0.66 2 1v2c-2.31 0.33-4.62 0.66-7 1 0.206 0.619 0.412 1.24 0.625 1.88 0.124 0.701 0.248 1.4 0.375 2.12l-2 2c-0.99-0.66-1.98-1.32-3-2v-2h-3c-1.67-0.311-3.34-0.641-5-1 0.557-3.23 1.33-5.02 4-7h4v-3c0.784-0.103 1.57-0.206 2.38-0.312 2.96-0.463 2.96-0.463 4.62-3.69 1.32 0.33 2.64 0.66 4 1v-2z" fill="#8674F9"/>
<path transform="translate(412,249)" d="m0 0h3c0.413 0.66 0.825 1.32 1.25 2 1.68 2.38 1.68 2.38 5.12 2.31 2.97-0.256 5.74-0.612 8.62-1.31-0.405 7.15-2.83 12.6-6 19-2.31-3.47-2.09-4.95-2-9-0.33-0.66-0.66-1.32-1-2h-4v-3c-1.65 0.33-3.3 0.66-5 1-1.12-6.75-1.12-6.75 0-9z" fill="#8674F9"/>
<path transform="translate(437,222)" d="m0 0c3.01 11.1-1.02 20.7-5 31h-1c-0.362-1.79-0.715-3.58-1.06-5.38-0.197-0.998-0.394-2-0.598-3.02-0.34-2.6-0.34-2.6 0.66-4.6-0.99-0.66-1.98-1.32-3-2 0.481-0.392 0.962-0.784 1.46-1.19 1.97-2.32 2.03-3.8 2.23-6.81 0.0657-0.866 0.131-1.73 0.199-2.62 0.0854-1.79 0.113-3.58 0.113-5.38 3.75-1.12 3.75-1.12 6 0z" fill="#8675F9"/>
<path transform="translate(378,44)" d="m0 0c1.94 0.812 1.94 0.812 4 2 0.33 0.99 0.66 1.98 1 3 0.639 0.309 1.28 0.619 1.94 0.938 2.52 1.3 3.03 2.48 4.06 5.06h2c-0.33 0.99-0.66 1.98-1 3-3-1-3-1-4-2.94-0.33-0.681-0.66-1.36-1-2.06-0.99-0.66-1.98-1.32-3-2-0.99 2.97-1.98 5.94-3 9-0.99-0.33-1.98-0.66-3-1-0.33-0.99-0.66-1.98-1-3-3.51-1.23-3.51-1.23-7-2-0.33-1.32-0.66-2.64-1-4h2v-3l6.15-0.586c0.915-0.205 0.915-0.205 1.85-0.414 0.33-0.66 0.66-1.32 1-2z" fill="#8876FB"/>
<path transform="translate(213,27)" d="m0 0c2.88 0.812 2.88 0.812 6 2 1.66 0.361 3.33 0.705 5 1v2h-3c-0.33 1.65-0.66 3.3-1 5h-7c0.99 1.48 0.99 1.48 2 3-2.97-0.495-2.97-0.495-6-1v-3h-2v-3c-0.66-0.33-1.32-0.66-2-1v-2c0.763-0.124 1.53-0.247 2.31-0.375 2.89-0.506 2.89-0.506 5.69-2.62z" fill="#8674F9"/>
<path transform="translate(250,1)" d="m0 0h21v1h-10v2h3v5c-3 1-3 1-6 1-1.21 0.278-1.21 0.278-2.44 0.562-2.6 0.445-4.09 0.262-6.56-0.562-0.33-1.32-0.66-2.64-1-4 1.32-0.33 2.64-0.66 4-1v-3c-0.66-0.33-1.32-0.66-2-1z" fill="#8877FA"/>
<path transform="translate(118 140)" d="m0 0c0.516 0.371 1.03 0.743 1.56 1.12h-2c0.33 0.66 0.66 1.32 1 2 2.02 0.652 2.02 0.652 4 1v2c-0.743-0.0206-1.48-0.0412-2.25-0.0625-2.69-0.0399-2.69-0.0399-5 0.625-0.866 0.217-0.866 0.217-1.75 0.438-0.33-0.33-0.66-0.66-1-1-0.33 2.97-0.66 5.94-1 9h-2c-0.66-0.99-1.32-1.98-2-3-0.33 0.99-0.66 1.98-1 3-0.99-0.33-1.98-0.66-3-1v-6h5c-0.33-0.99-0.66-1.98-1-3 0.438-2.19 0.438-2.19 1-4 6.4-2.22 6.4-2.22 9.44-1.12z" fill="#8674F9"/>
<path transform="translate(216,314)" d="m0 0c1.18 0.268 2.35 0.536 3.56 0.812 8.76 1.95 17.6 3.76 26.4 5.19v1c-1.56 0.562-3.12 1.1-4.69 1.62-0.87 0.302-1.74 0.603-2.64 0.914-3.28 0.565-4.69-0.176-7.68-1.54-1.83-0.354-3.66-0.666-5.5-0.938-4.09-0.69-7.13-1.51-10.5-4.06 0.33-0.99 0.66-1.98 1-3z" fill="#7162D2"/>
<path transform="translate(282,234)" d="m0 0c4.32 6.49 3.12 15.5 3.06 23-0.00451 1.06-0.00902 2.12-0.0137 3.21-0.0117 2.6-0.0281 5.19-0.0488 7.79 0.66 0.33 1.32 0.66 2 1-2.68-0.383-4.1-1.07-6.31-2.69-1.69-2.31-1.69-2.31-1.5-5.44 0.812-2.88 0.812-2.88 1.81-4.88 0.0593-3.79 0.0208-7.56-0.0391-11.3-0.00773-0.79-0.0155-1.58-0.0234-2.39-0.0116-0.72-0.0232-1.44-0.0352-2.18 0.101-2.15 0.508-4.01 1.1-6.07z" fill="#8777F9"/>
<path transform="translate(401,69)" d="m0 0c1.74 0.141 1.74 0.141 4 1 2.11 2.55 2.11 2.55 4.19 5.75 1.04 1.57 1.04 1.57 2.11 3.17 1.59 2.86 2.24 4.89 2.71 8.08 0.392 0.846 0.784 1.69 1.19 2.56 0.812 2.44 0.812 2.44-0.0625 4.75-0.371 0.557-0.743 1.11-1.12 1.69-0.33-0.66-0.66-1.32-1-2h-2c-0.33 0.66-0.66 1.32-1 2h-2c-0.124-0.639-0.248-1.28-0.375-1.94-0.206-0.681-0.413-1.36-0.625-2.06-0.66-0.33-1.32-0.66-2-1v-2c1.32-0.33 2.64-0.66 4-1 0.33-2.31 0.66-4.62 1-7h-2c-0.33-0.99-0.66-1.98-1-3-0.99-0.66-1.98-1.32-3-2-3-4.44-3-4.44-3-7z" fill="#8876FB"/>
<path transform="translate(320,324)" d="m0 0h6c0.124 0.928 0.124 0.928 0.25 1.88 0.544 2.3 0.544 2.3 2.75 3.19 0.66 0.309 1.32 0.619 2 0.938 0.33 0.99 0.66 1.98 1 3-1.6 0.39-3.21 0.762-4.81 1.12-0.893 0.209-1.79 0.418-2.71 0.633-2.48 0.242-2.48 0.242-5.48-1.76v-4c-0.99 0.33-1.98 0.66-3 1-0.33-0.66-0.66-1.32-1-2l3-3v2h2v-3z" fill="#8775FB"/>
<path transform="translate(133,248)" d="m0 0c1.68 0.286 3.34 0.618 5 1v7c0.66 0.33 1.32 0.66 2 1-0.33 1.32-0.66 2.64-1 4 0.66 0.33 1.32 0.66 2 1v5h-2c-0.33-1.32-0.66-2.64-1-4-0.598-0.0619-1.2-0.124-1.81-0.188-2.19-0.812-2.19-0.812-4-2.88-1.66-4.11-1.05-6.61-0.188-10.9l1-1z" fill="#8877FA"/>
<path transform="translate(398,246)" d="m0 0h2v2c2.31 0.66 4.62 1.32 7 2v5h-3c0.165 0.598 0.33 1.2 0.5 1.81 0.5 2.19 0.5 2.19 0.5 5.19-1.98-0.66-3.96-1.32-6-2-0.771-4.72-1.1-9.22-1-14z" fill="#8674F9"/>
<path transform="translate(178,294)" d="m0 0c1.32 0.33 2.64 0.66 4 1v2c0.674 0.245 1.35 0.49 2.04 0.742 3.6 1.53 6.9 3.42 10.3 5.38 0.645 0.373 1.29 0.745 1.96 1.13 1.58 0.912 3.16 1.83 4.73 2.75-0.33 0.66-0.66 1.32-1 2-4.49-0.624-8.2-2.39-12.2-4.44-0.628-0.313-1.26-0.625-1.9-0.947-2.65-1.34-4.8-2.5-6.91-4.62-0.625-2.62-0.625-2.62-1-5z" fill="#7E6EEB"/>
<path transform="translate(240,246)" d="m0 0c2.6 2.6 2.29 4.47 2.32 8.02-0.00322 0.776-0.00645 1.55-0.00977 2.35 0.0161 0.768 0.0322 1.54 0.0488 2.33 0.00288 3.33-0.118 5.75-1.49 8.82-2.7 2.14-4.66 1.87-8.05 1.73-1.09-0.0361-2.17-0.0722-3.29-0.109-1.25-0.0696-1.25-0.0696-2.52-0.141v-1c2.97-0.33 5.94-0.66 9-1v-2h-2v-5c1.65-0.33 3.3-0.66 5-1 0.33-4.29 0.66-8.58 1-13z" fill="#8775F9"/>
<path transform="translate(1270,198)" d="m0 0v2c-0.699 0.17-1.4 0.34-2.12 0.516-0.91 0.242-1.82 0.485-2.76 0.734-0.905 0.232-1.81 0.464-2.74 0.703-2.53 0.846-2.53 0.846-3.7 3.16-0.336 0.936-0.336 0.936-0.68 1.89-2.64-0.33-5.28-0.66-8-1v-3c13.2-7.06 13.2-7.06 20-5z" fill="#6551ED"/>
<path transform="translate(776,315)" d="m0 0c6.67 0.933 6.67 0.933 9.66 1.53 4.26 0.598 8.42 0.576 12.7 0.531 1.25-0.00677 1.25-0.00677 2.52-0.0137 2.04-0.0117 4.07-0.0296 6.11-0.0488 0.33 0.99 0.66 1.98 1 3-11.3 2.51-21.2 0.573-32-3v-2z" fill="#010204"/>
<path transform="translate(279,231)" d="m0 0c1.49 0.99 1.49 0.99 3 2 0.356 2.31 0.356 2.31 0.328 5.16-0.00773 1.53-0.00773 1.53-0.0156 3.1-0.0206 1.07-0.0412 2.14-0.0625 3.25-0.00516 1.07-0.0103 2.14-0.0156 3.25-0.0802 7.95-0.0802 7.95-1.23 10.3h-2v-27z" fill="#8373F9"/>
<path transform="translate(331,315)" d="m0 0c2.69 0.875 2.69 0.875 5 2v2h-2v2c-3.61 2.41-5.45 3.25-9.75 2.56-0.743-0.186-1.49-0.371-2.25-0.562v-4c1.39-0.433 1.39-0.433 2.81-0.875 3.29-1.01 3.29-1.01 6.19-3.12z" fill="#8777FA"/>
<path transform="translate(328,388)" d="m0 0h5c0.625 1.81 0.625 1.81 1 4-0.99 1.49-0.99 1.49-2 3h-3c-0.33 0.66-0.66 1.32-1 2-1.65-0.99-3.3-1.98-5-3 0.375-1.94 0.375-1.94 1-4 0.66-0.33 1.32-0.66 2-1 0.66 0.33 1.32 0.66 2 1v-2z" fill="#8775F9"/>
<path transform="translate(191,194)" d="m0 0c0.33 0.66 0.66 1.32 1 2-1.32 0.33-2.64 0.66-4 1 0.33 0.66 0.66 1.32 1 2h-2v2h-3v3c-0.99-0.33-1.98-0.66-3-1 0.33-0.66 0.66-1.32 1-2-2.47-0.99-2.47-0.99-5-2 4.26-5.49 7.51-5.64 14-5z" fill="#8878FA"/>
<path transform="translate(120,186)" d="m0 0h1c0.953 4.76 1.08 9.17 1 14-1.94 0.562-1.94 0.562-4 1-1-1-1-1-1.13-2.96 0.00258-0.797 0.00516-1.59 0.00781-2.41-0.00387-1.19-0.00387-1.19-0.00781-2.4 0.133-2.23 0.133-2.23 1.13-5.23h2v-2z" fill="#8674F9"/>
<path transform="translate(388,83)" d="m0 0c0.99 0.66 1.98 1.32 3 2h-2v3c0.66 0.33 1.32 0.66 2 1-0.99 0.99-1.98 1.98-3 3-0.66-0.33-1.32-0.66-2-1 0.278 0.928 0.278 0.928 0.562 1.88 0.438 2.12 0.438 2.12-0.562 4.12h-2c-0.66-4.29-1.32-8.58-2-13h4v6c0.66-2.31 1.32-4.62 2-7z" fill="#8876FC"/>
<path transform="translate(375,72)" d="m0 0c1.65 2.96 2.56 5.63 3 9-0.33 0.66-0.66 1.32-1 2h-6c-0.33-1.98-0.66-3.96-1-6 0.639-0.268 1.28-0.536 1.94-0.812 2.39-1.07 2.39-1.07 3.06-4.19z" fill="#8876FC"/>
<path transform="translate(315,387)" d="m0 0h5c0 4 0 4-1.25 5.5-0.866 0.743-0.866 0.743-1.75 1.5-0.66 0.722-1.32 1.44-2 2.19-2 1.81-2 1.81-5 1.81 0.33-1.32 0.66-2.64 1-4h2c0.33-0.66 0.66-1.32 1-2-0.99-0.33-1.98-0.66-3-1 0.99-0.33 1.98-0.66 3-1 0.33-0.99 0.66-1.98 1-3z" fill="#8674F9"/>
<path transform="translate(374,39)" d="m0 0c-0.66 2.31-1.32 4.62-2 7-0.236-0.638-0.472-1.28-0.715-1.93-1.1-2.25-1.1-2.25-3.41-2.79-0.803-0.112-1.61-0.224-2.43-0.34-2.44-0.348-2.44-0.348-4.44-0.938-0.33-0.99-0.66-1.98-1-3 5.1-1.55 9.31-0.347 14 2z" fill="#8876FB"/>
<path transform="translate(1507,318)" d="m0 0h2v10c-2.31-0.66-4.62-1.32-7-2v-5c1.65-0.66 3.3-1.32 5-2v-1z" fill="#7259FA"/>
<path transform="translate(273,167)" d="m0 0c2.38-0.188 2.38-0.188 5 0 2 3 2 3 2 6-3 0.965-5.04 1.22-8 0-0.33-0.99-0.66-1.98-1-3h2v-3z" fill="#8373FA"/>
<path transform="translate(593,96)" d="m0 0c2.71 0.453 5.42 0.912 8.12 1.38 0.761 0.126 1.52 0.253 2.3 0.383 4.35 0.75 8.41 1.71 12.6 3.24v2c-1.65-0.308-3.29-0.621-4.94-0.938-0.917-0.174-1.83-0.348-2.78-0.527-2.29-0.535-2.29-0.535-3.29-1.54-1.85-0.234-3.7-0.413-5.56-0.562-1.01-0.0838-2.02-0.168-3.07-0.254-1.17-0.0909-1.17-0.0909-2.37-0.184-0.33-0.99-0.66-1.98-1-3z" fill="#010204"/>
<path transform="translate(368,65)" d="m0 0h4c-0.114 1.48-0.241 2.96-0.375 4.44-0.0696 0.824-0.139 1.65-0.211 2.5-0.137 0.682-0.273 1.36-0.414 2.07-0.99 0.495-0.99 0.495-2 1-0.33-0.33-0.66-0.66-1-1-1.98 0.99-1.98 0.99-4 2-0.33-0.66-0.66-1.32-1-2 0.938-2.12 0.938-2.12 2-4 1.65 0.33 3.3 0.66 5 1v-2h-5c1.32-0.66 2.64-1.32 4-2-0.33-0.66-0.66-1.32-1-2z" fill="#8775F9"/>
<path transform="translate(240,246)" d="m0 0c2.61 2.61 2.29 4.51 2.32 8.07-0.00483 1.17-0.00483 1.17-0.00977 2.37 0.0161 0.777 0.0322 1.55 0.0488 2.35 0.00195 2.27 0.00195 2.27-0.361 6.21-0.99 0.99-1.98 1.98-3 3 0.33-7.26 0.66-14.5 1-22z" fill="#8776FB"/>
<path transform="translate(147,263)" d="m0 0c3.5 1.4 4.46 2.62 6 6 0.495 0.474 0.99 0.949 1.5 1.44 1.9 1.98 2.6 4 3.5 6.56h-3c-3-4.22-3-4.22-3-7h-2c-3-4.38-3-4.38-3-7z" fill="#8776FB"/>
<path transform="translate(423,257)" d="m0 0h2c0.25 1.58 0.474 3.16 0.688 4.75 0.128 0.882 0.255 1.76 0.387 2.67-0.0902 3.13-1 4.3-3.07 6.58-0.0606-0.626-0.121-1.25-0.184-1.9-0.0838-0.817-0.168-1.63-0.254-2.48-0.0812-0.812-0.162-1.62-0.246-2.46-0.207-2.21-0.207-2.21-1.32-4.16h2v-3z" fill="#8775FB"/>
<path transform="translate(145,309)" d="m0 0 2 1v2c0.66 0.33 1.32 0.66 2 1 0.414 2.72 0.414 2.72 0.625 6.06 0.0748 1.1 0.15 2.21 0.227 3.35 0.049 0.855 0.098 1.71 0.148 2.59 0.99 0.33 1.98 0.66 3 1h-5c-0.124-0.846-0.248-1.69-0.375-2.56-0.574-3.5-0.574-3.5-1.69-7.06-0.938-3.38-0.938-3.38-0.938-7.38z" fill="#8775F9"/>
<path transform="translate(93,115)" d="m0 0h2c0.33 2.97 0.66 5.94 1 9-1.32 0.33-2.64 0.66-4 1-0.977-6.05-0.977-6.05-1-8l2-2z" fill="#8878FA"/>
<path transform="translate(214,133)" d="m0 0c1.65 0.33 3.3 0.66 5 1v5c-1.65 0.33-3.3 0.66-5 1-0.66-1.32-1.32-2.64-2-4 0.66-0.99 1.32-1.98 2-3z" fill="#8876FC"/>
<path transform="translate(303,417)" d="m0 0h2c0.33 0.66 0.66 1.32 1 2 0.99 0.33 1.98 0.66 3 1-5.29 4.06-5.29 4.06-8.88 3.75-0.701-0.248-1.4-0.495-2.12-0.75 0.33-0.66 0.66-1.32 1-2h2c0.66-1.32 1.32-2.64 2-4z" fill="#8674F9"/>
<path transform="translate(398,246)" d="m0 0h2v2c1.32 0.66 2.64 1.32 4 2-1.32 1.32-2.64 2.64-4 4-0.66-0.33-1.32-0.66-2-1v-7zm0 8c0.99 0.495 0.99 0.495 2 1v3h-2v-4z" fill="#8775FA"/>
<path transform="translate(238,222)" d="m0 0h1v11h-5c-0.188-2.31-0.188-2.31 0-5 1.44-1.62 1.44-1.62 3-3 0.33-0.99 0.66-1.98 1-3z" fill="#8775FB"/>
<path transform="translate(230,151)" d="m0 0h3l-3 6h-3c-0.66 1.32-1.32 2.64-2 4h-2c0.33-1.32 0.66-2.64 1-4h2c0.66-1.32 1.32-2.64 2-4h2v-2z" fill="#8878FA"/>
<path transform="translate(310,20)" d="m0 0c-0.33 0.66-0.66 1.32-1 2h-17c0.33-0.66 0.66-1.32 1-2 5.71-1.12 11.4-1.73 17 0z" fill="#8373FA"/>
<path transform="translate(430,240)" d="m0 0c1.32 0.99 2.64 1.98 4 3-0.75 6.62-0.75 6.62-3 10-0.362-1.79-0.715-3.58-1.06-5.38-0.197-0.998-0.394-2-0.598-3.02-0.34-2.6-0.34-2.6 0.66-4.6z" fill="#8775FB"/>
<path transform="translate(803,196)" d="m0 0c10.6-0.185 10.6-0.185 15 1v2c0.66 0.33 1.32 0.66 2 1-0.99 0.33-1.98 0.66-3 1-0.99-0.66-1.98-1.32-3-2-2.32-0.363-4.6-0.503-6.94-0.656-2.06-0.344-2.06-0.344-4.06-2.34z" fill="#010204"/>
<path transform="translate(285,24)" d="m0 0c0.392 0.66 0.784 1.32 1.19 2 1.67 2.29 1.67 2.29 4.5 2.25 1.14-0.124 1.14-0.124 2.31-0.25-0.625 1.94-0.625 1.94-2 4-3.12 0.75-3.12 0.75-6 1v-9z" fill="#8674F9"/>
<path transform="translate(274,1)" d="m0 0c2.31 0.113 4.63 0.241 6.94 0.375 1.93 0.104 1.93 0.104 3.9 0.211 1.56 0.205 1.56 0.205 3.16 0.414 0.33 0.66 0.66 1.32 1 2-7.93 2.25-7.93 2.25-12 1.31-2-1.31-2-1.31-3-4.31z" fill="#8271FA"/>
<path transform="translate(936,214)" d="m0 0h2v13h3c-0.33 0.99-0.66 1.98-1 3-3-2-3-2-3.68-3.8-0.361-2.52-0.412-4.91-0.379-7.45 0.00902-0.892 0.018-1.78 0.0273-2.7 0.0116-0.675 0.0232-1.35 0.0352-2.05z" fill="#020305"/>
<path transform="translate(298,349)" d="m0 0h3c-0.33 2.64-0.66 5.28-1 8h-9c0.66-1.32 1.32-2.64 2-4 0.33 0.66 0.66 1.32 1 2 0.99-0.33 1.98-0.66 3-1 0.33-1.65 0.66-3.3 1-5z" fill="#8775F9"/>
<path transform="translate(327 121)" d="m0 0c1.61 0.34 1.61 0.34 3.25 0.688-0.33 1.32-0.66 2.64-1 4-3.3-0.66-6.6-1.32-10-2 4-3 4-3 7.75-2.69z" fill="#8876FC"/>
<path transform="translate(426,252)" d="m0 0h4c-0.75 7.62-0.75 7.62-3 11 0.0412-0.722 0.0825-1.44 0.125-2.19-0.134-3.02-0.877-5.08-2.12-7.81 0.33-0.33 0.66-0.66 1-1z" fill="#8775FB"/>
<path transform="translate(832,306)" d="m0 0c0.66 1.98 1.32 3.96 2 6-0.763-0.186-1.53-0.371-2.31-0.562-2.78-0.666-2.78-0.666-5.69 0.562 0.312-1.88 0.312-1.88 1-4 3-2 3-2 5-2z" fill="#010203"/>
<path transform="translate(180,312)" d="m0 0c3.49 1.11 6.77 2.26 10 4-1 1-1 1-3.07 1.1-0.824-0.0116-1.65-0.0232-2.5-0.0352-0.826-0.00902-1.65-0.018-2.5-0.0273-0.638-0.0116-1.28-0.0232-1.93-0.0352v-5z" fill="#8876FC"/>
<path transform="translate(189,214)" d="m0 0h1c0.0542 1.92 0.0929 3.83 0.125 5.75 0.0232 1.07 0.0464 2.13 0.0703 3.23-0.195 3.02-0.195 3.02-2.2 7.02-0.33-4.29-0.66-8.58-1-13h2v-3z" fill="#8876FC"/>
<path transform="translate(221,143)" d="m0 0c0.99 0.33 1.98 0.66 3 1v5c-1.98 0.33-3.96 0.66-6 1 0.375-2.94 0.375-2.94 1-6 0.66-0.33 1.32-0.66 2-1z" fill="#8878FA"/>
<path transform="translate(258,92)" d="m0 0h5c0.66 1.32 1.32 2.64 2 4h-4v3h-2c0.33-1.32 0.66-2.64 1-4h-2v-3z" fill="#8878FA"/>
<path transform="translate(282,1)" d="m0 0h6v1h-6v-1z" fill="#8775FB"/>
<path transform="translate(234,1)" d="m0 0h5v1h-5v-1z" fill="#8775FB"/>
<path transform="translate(276)" d="m0 0 4 1z" fill="#8373FA"/>
<path transform="translate(245)" d="m0 0 2 1z" fill="#8876FC"/>
</svg>
