<svg width="24" height="24" viewBox="0 0 24 24" fill="none" xmlns="http://www.w3.org/2000/svg">
<path d="M7.54753 21.5013C16.6042 21.5013 21.5578 13.9979 21.5578 7.49102C21.5578 7.2779 21.5578 7.06574 21.5434 6.85454C22.5071 6.15749 23.3389 5.29441 24 4.30574C23.1013 4.70394 22.148 4.96509 21.1719 5.08045C22.1998 4.46508 22.9692 3.49719 23.3367 2.35693C22.3701 2.93049 21.3127 3.3347 20.2099 3.55213C19.4675 2.76271 18.4857 2.23997 17.4162 2.06481C16.3468 1.88966 15.2495 2.07184 14.294 2.58318C13.3385 3.09452 12.5783 3.90651 12.1308 4.89348C11.6832 5.88046 11.5736 6.9874 11.8186 8.04302C9.86093 7.94488 7.94574 7.43614 6.19743 6.54982C4.44911 5.66351 2.90673 4.41944 1.67041 2.89837C1.04073 3.98237 0.847874 5.26561 1.1311 6.4868C1.41433 7.708 2.15235 8.77533 3.19488 9.47151C2.41128 9.44828 1.64475 9.23689 0.960004 8.85518C0.960004 8.87534 0.960004 8.89646 0.960004 8.91758C0.960315 10.0544 1.35385 11.1562 2.07387 12.036C2.79389 12.9157 3.79607 13.5194 4.91041 13.7444C4.18548 13.9422 3.42488 13.9711 2.68704 13.829C3.00169 14.8074 3.61428 15.6629 4.43912 16.2761C5.26396 16.8892 6.2598 17.2292 7.28737 17.2484C5.54375 18.6188 3.38983 19.3628 1.17216 19.3604C0.780389 19.3597 0.388997 19.336 0 19.2894C2.25181 20.7345 4.87193 21.501 7.54753 21.4974" fill="#424648"/>
</svg>
