<svg width="24" height="24" fill="none" xmlns="http://www.w3.org/2000/svg"><mask id="a" style="mask-type:luminance" maskUnits="userSpaceOnUse" x="0" y="3" width="24" height="18"><path d="M24 3H0v18h24V3Z" fill="#fff"/></mask><g mask="url(#a)"><path fill-rule="evenodd" clip-rule="evenodd" d="M23.773 6.876s-.24-1.767-.962-2.536c-.908-1.026-1.936-1.026-2.404-1.083C17.055 3 12.007 3 12.007 3h-.014s-5.035 0-8.4.257c-.468.057-1.496.07-2.404 1.083C.467 5.11.24 6.876.24 6.876S0 8.943 0 11.024v1.938c0 2.066.24 4.147.24 4.147s.24 1.767.949 2.537c.908 1.026 2.11.983 2.644 1.098 1.923.199 8.16.256 8.16.256s5.049-.014 8.401-.27c.467-.058 1.496-.072 2.404-1.084.721-.77.962-2.537.962-2.537s.24-2.066.24-4.147v-1.938c0-2.067-.24-4.148-.24-4.148h.013Zm-14.25 8.452V8.13l6.49 3.605-6.49 3.592Z" fill="#424648"/></g></svg>